<?xml version="1.0" encoding="iso-8859-1"?>
<!-- Generator: Adobe Illustrator 19.0.0, SVG Export Plug-In . SVG Version: 6.00 Build 0)  -->
<svg xmlns="http://www.w3.org/2000/svg" xmlns:xlink="http://www.w3.org/1999/xlink" version="1.1" id="Layer_1" x="0px" y="0px" viewBox="0 0 512.001 512.001" style="enable-background:new 0 0 512.001 512.001;" xml:space="preserve">
<path style="fill:#CEDEEC;" d="M456.348,375.868v113.86c0,12.301-10.102,22.273-22.563,22.273H78.215  c-12.461-0.001-22.563-9.973-22.563-22.274V375.868c0-18.651,13.198-34.769,31.674-38.677l108.57-22.967h120.209l108.57,22.967  C443.15,341.099,456.348,357.216,456.348,375.868z"/>
<path style="fill:#ABC5FF;" d="M456.348,375.868v113.86c0,12.301-10.102,22.273-22.563,22.273h-27.34  c15.265-0.001,27.641-12.218,27.641-27.288v-139.49c0-1.655-0.095-3.292-0.26-4.911  C447.354,346.814,456.348,360.474,456.348,375.868z"/>
<path style="fill:#809DED;" d="M396.244,331.176V512H115.757V331.176l50.087-10.595v62.865c0,21.846,17.94,39.555,40.07,39.555  h100.174c22.13,0,40.07-17.71,40.07-39.555v-62.865L396.244,331.176z"/>
<path style="fill:#5D7EAC;" d="M396.244,331.176v158.563V512h-24.487h-256v-22.261h244.87c6.147,0,11.13-4.983,11.13-11.13V325.997  L396.244,331.176z"/>
<path style="fill:#FFB933;" d="M357.532,412.044v22.285c0,6.147-4.983,11.13-11.13,11.13h-56.708c-6.147,0-11.13-4.983-11.13-11.13  v-22.285c0-6.147,4.983-11.13,11.13-11.13h56.708C352.549,400.914,357.532,405.897,357.532,412.044z"/>
<path style="fill:#FFD34E;" d="M323.688,445.459h-33.844c-6.231,0-11.282-4.986-11.282-11.136V412.05  c0-6.151,5.051-11.136,11.282-11.136h33.844c6.231,0,11.282,4.986,11.282,11.136v22.273  C334.97,440.474,329.919,445.459,323.688,445.459z"/>
<path style="fill:#D9B166;" d="M382.787,111.364c-0.991,45.991-8.265,91.656-21.665,135.749l0,0  c-6.854,22.552-23.766,40.052-45.016,48.327v18.783L287.15,357.1c-6.943,10.281-18.631,16.456-31.148,16.456  c-12.517,0-24.205-6.175-31.149-16.456l-28.957-42.876v-18.783c-21.25-8.275-38.163-25.775-45.016-48.327l0,0  c-13.4-44.093-20.676-89.758-21.665-135.749h253.572V111.364z"/>
<path style="fill:#F5D472;" d="M262.929,300.685h-39.112c-33.628,0-63.274-21.774-72.938-53.571l0,0  c-13.4-44.093-20.676-89.758-21.665-135.749h228.319c-0.99,45.991-8.265,91.656-21.665,135.749l0,0  C326.204,278.911,296.558,300.685,262.929,300.685z"/>
<path style="fill:#D9B166;" d="M289.845,245.003l-5.045,14.941c-3.822,11.319-11.635,18.469-20.181,18.469h-17.237  c-8.546,0-16.358-7.15-20.181-18.469l-5.045-14.941H289.845z"/>
<path style="fill:#FFFFFF;" d="M289.845,245.003l-5.045,9.961c-3.822,7.545-11.635,12.312-20.181,12.312h-17.237  c-8.546,0-16.358-4.766-20.181-12.312l-5.045-9.961H289.845z"/>
<path style="fill:#BC8E50;" d="M232.028,175.4c0,4.612-3.788,8.352-8.461,8.352h-12.692c-4.673,0-8.461-3.74-8.461-8.352  c0-4.612,3.788-8.352,8.461-8.352h12.692C228.24,167.048,232.028,170.786,232.028,175.4z M301.126,167.048h-12.691  c-4.673,0-8.461,3.74-8.461,8.352c0,4.612,3.788,8.352,8.461,8.352h12.692c4.673,0,8.461-3.74,8.461-8.352  C309.588,170.788,305.798,167.048,301.126,167.048z M267.281,203.241h-2.82v-91.876c0-4.612-3.788-8.352-8.461-8.352  c-4.674,0-8.461,3.74-8.461,8.352v91.876h-2.82c-4.673,0-8.461,3.74-8.461,8.352c0,4.612,3.789,8.352,8.461,8.352h22.562  c4.673,0,8.461-3.74,8.461-8.352C275.743,206.98,271.955,203.241,267.281,203.241z"/>
<path style="fill:#FFCB39;" d="M408.298,120.096c0,9.786-8.036,17.719-17.949,17.719H121.652c-9.913,0-17.949-7.933-17.949-17.719  c0-4.699,1.891-9.206,5.257-12.528L129.086,87.7l0,0c0-41.515,34.093-75.172,76.149-75.172h101.532  c42.056,0,76.149,33.655,76.149,75.172l0,0l20.126,19.868C406.407,110.89,408.298,115.397,408.298,120.096z"/>
<path style="fill:#FFB933;" d="M405.949,111.364H177.737c-6.62,0-11.986-5.298-11.986-11.833c0-6.535,5.367-11.833,11.986-11.833  h27.498l11.135-76.944C217.262,4.585,222.617,0,228.934,0h54.134c6.317,0,11.67,4.585,12.564,10.756L306.766,87.7h76.149  l20.126,19.868C404.193,108.705,405.158,109.99,405.949,111.364z"/>
<path style="fill:#FF9600;" d="M408.298,120.096c0,9.786-8.036,17.719-17.949,17.719h-28.203c9.913,0,17.949-7.933,17.949-17.719  c0-4.699-1.891-9.206-5.257-12.528L354.712,87.7l0,0c0-35.525-24.972-65.274-58.528-73.126L306.766,87.7h-28.203l-11.135-76.944  C266.535,4.585,261.181,0,254.864,0h28.203c6.317,0,11.67,4.585,12.564,10.756l0.256,1.772h10.879  c42.055,0,76.149,33.655,76.149,75.172l0,0l20.126,19.868C406.407,110.89,408.298,115.397,408.298,120.096z"/>
<g>
</g>
<g>
</g>
<g>
</g>
<g>
</g>
<g>
</g>
<g>
</g>
<g>
</g>
<g>
</g>
<g>
</g>
<g>
</g>
<g>
</g>
<g>
</g>
<g>
</g>
<g>
</g>
<g>
</g>
</svg>
