<?xml version="1.0" encoding="iso-8859-1"?>
<!-- Generator: Adobe Illustrator 19.0.0, SVG Export Plug-In . SVG Version: 6.00 Build 0)  -->
<svg xmlns="http://www.w3.org/2000/svg" xmlns:xlink="http://www.w3.org/1999/xlink" version="1.1" id="Layer_1" x="0px" y="0px" viewBox="0 0 512 512" style="enable-background:new 0 0 512 512;" xml:space="preserve">
<path style="fill:#6D6D6D;" d="M361.739,178.087h-89.043v-66.783h89.043V178.087z"/>
<path style="fill:#444444;" d="M361.739,178.087h-22.261v-66.783h22.261V178.087z"/>
<path style="fill:#BFBFBF;" d="M384,111.304c0,6.147-4.983,11.13-11.13,11.13H261.565c-6.147,0-11.13-4.983-11.13-11.13V22.261H384  V111.304z"/>
<path style="fill:#6D6D6D;" d="M384,44.522v66.783c0,6.147-4.983,11.13-11.13,11.13h-33.391V44.522H384z"/>
<path style="fill:#FFF7A9;" d="M100.379,500.87c-0.121-1.841-0.205-3.693-0.205-5.565c0-46.103,37.375-83.478,83.478-83.478  s83.478,37.375,83.478,83.478c0,1.872-0.083,3.724-0.205,5.565H100.379z"/>
<path style="fill:#FFD34E;" d="M425.739,503.652c0,4.61-3.738,8.348-8.348,8.348H94.609c-4.61,0-8.348-3.738-8.348-8.348  s3.738-8.348,8.348-8.348h322.783C422.001,495.304,425.739,499.042,425.739,503.652z M141.576,476.163  c1.629,1.629,3.767,2.445,5.902,2.445s4.273-0.815,5.902-2.445c3.26-3.26,3.26-8.546,0-11.805l-44.522-44.522  c-3.26-3.26-8.546-3.26-11.805,0c-3.26,3.26-3.26,8.546,0,11.805L141.576,476.163z M180.87,456.348c4.61,0,8.348-3.738,8.348-8.348  v-66.783c0-4.61-3.738-8.348-8.348-8.348c-4.61,0-8.348,3.738-8.348,8.348V448C172.522,452.61,176.259,456.348,180.87,456.348z"/>
<path style="fill:#BFBFBF;" d="M380.543,180.786l-16.696,66.783c-1.239,4.955-5.691,8.431-10.799,8.431h-13.57v169.714  c0,9.117-5.559,17.312-14.029,20.684l-68.132,27.116c-11.618,4.624-24.084-1.686-27.938-12.556c-0.777-2.19,0.377-3.819,0.377-6.328  l-0.747-1.133c0-8.008,5.295-14.197,12.494-17.779l48.863-24.309c3.782-1.881,6.173-5.741,6.173-9.965L294.957,256h-13.57  c-5.108,0-9.56-3.476-10.798-8.431l-16.696-66.783c-1.756-7.024,3.557-13.83,10.798-13.83h105.053  C376.986,166.957,382.299,173.762,380.543,180.786z"/>
<path style="fill:#E2E2E2;" d="M339.478,166.957L317.217,256h-1.001v152.28c0,10.94-6.67,20.774-16.835,24.82l-69.994,27.856  c-0.778-2.192-1.214-4.565-1.214-7.076l0,0c0-8.008,4.548-15.33,11.747-18.912l48.863-24.309c3.782-1.881,6.173-5.741,6.173-9.965  V256h-13.57c-5.108,0-9.56-3.476-10.798-8.431l-16.696-66.783c-1.756-7.024,3.557-13.83,10.798-13.83H339.478z"/>
<path style="fill:#6D6D6D;" d="M283.826,256h66.783v44.522c0,6.147-4.983,11.13-11.13,11.13h-44.522  c-6.147,0-11.13-4.983-11.13-11.13V256z"/>
<path style="fill:#444444;" d="M350.609,256v44.522c0,6.147-4.983,11.13-11.13,11.13h-23.261L317.217,256H350.609z"/>
<path style="fill:#FFD34E;" d="M417.391,11.13v22.261c0,6.147-4.983,11.13-11.13,11.13v22.261c0,6.147-4.983,11.13-11.13,11.13  H372.87c-6.147,0-11.13-4.983-11.13-11.13V44.522h-89.043v22.261c0,6.147-4.983,11.13-11.13,11.13h-22.261  c-6.147,0-11.13-4.983-11.13-11.13V44.522c-6.147,0-11.13-4.983-11.13-11.13V11.13c0-6.147,4.983-11.13,11.13-11.13h178.087  C412.408,0,417.391,4.983,417.391,11.13z"/>
<path style="fill:#FFB933;" d="M417.391,22.261v11.13c0,6.147-4.983,11.13-11.13,11.13v22.261c0,6.147-4.983,11.13-11.13,11.13H384  V44.522H272.696v22.261c0,6.147-4.983,11.13-11.13,11.13h-11.13V44.522h-22.261c-6.147,0-11.13-4.983-11.13-11.13v-11.13H417.391z"/>
<g>
</g>
<g>
</g>
<g>
</g>
<g>
</g>
<g>
</g>
<g>
</g>
<g>
</g>
<g>
</g>
<g>
</g>
<g>
</g>
<g>
</g>
<g>
</g>
<g>
</g>
<g>
</g>
<g>
</g>
</svg>
