<?xml version="1.0" encoding="iso-8859-1"?>
<!-- Generator: Adobe Illustrator 19.0.0, SVG Export Plug-In . SVG Version: 6.00 Build 0)  -->
<svg xmlns="http://www.w3.org/2000/svg" xmlns:xlink="http://www.w3.org/1999/xlink" version="1.1" id="Layer_1" x="0px" y="0px" viewBox="0 0 512 512" style="enable-background:new 0 0 512 512;" xml:space="preserve">
<path style="fill:#687B40;" d="M500.87,133.565v33.391l-49.615,307.611C447.775,496.14,429.153,512,407.302,512h-46.214  c-9.581,0-18.088-6.132-21.119-15.221l-0.983-2.948c-3.03-9.09-11.537-15.222-21.118-15.222H194.131  c-9.581,0-18.088,6.132-21.119,15.221l-0.983,2.948C169,505.868,160.493,512,150.912,512H94.798  c-22.387,0-41.291-16.622-44.156-38.824L11.13,166.957v-33.391H500.87z"/>
<path style="fill:#57682E;" d="M489.739,89.043c12.295,0,22.261,9.966,22.261,22.261v44.522c0,6.147-4.983,11.13-11.13,11.13  l-49.615,307.611C447.775,496.14,429.153,512,407.302,512H362.78c21.852,0,40.475-15.86,43.954-37.433l49.614-307.611H11.13  c-6.147,0-11.13-4.983-11.13-11.13v-44.522C0,99.01,9.966,89.043,22.261,89.043H489.739z"/>
<path style="fill:#FFD34E;" d="M347.531,313.7c5.654,9.047,8.643,19.467,8.643,30.136c0,31.352-25.508,56.86-56.86,56.86h-21.053  v-44.522h21.053c6.803,0,12.338-5.535,12.338-12.338c0-2.315-0.649-4.576-1.875-6.539l-40.23-64.367  c-2.27-3.631-6.181-5.799-10.463-5.799h-6.17c-4.282,0-8.193,2.168-10.463,5.799l-40.229,64.367  c-1.228,1.963-1.875,4.224-1.875,6.539c0,6.803,5.535,12.338,12.338,12.338h21.053v44.522h-21.053  c-31.352,0-56.86-25.508-56.86-56.86c0-10.669,2.989-21.089,8.643-30.136l40.23-64.367c10.459-16.733,28.484-26.724,48.217-26.724  h6.17c19.733,0,37.757,9.991,48.216,26.723L347.531,313.7z M467.478,44.522h-55.652V22.261C411.826,9.966,401.86,0,389.565,0  h-89.043c-12.295,0-22.261,9.966-22.261,22.261v22.261h-44.522V22.261C233.739,9.966,223.773,0,211.478,0h-89.043  c-12.295,0-22.261,9.966-22.261,22.261v22.261H44.522C19.933,44.522,0,64.455,0,89.043v22.261h100.174h133.565h44.522h133.565H512  V89.043C512,64.455,492.066,44.522,467.478,44.522z"/>
<path style="fill:#FFB933;" d="M347.531,313.7c5.654,9.047,8.643,19.467,8.643,30.136c0,31.352-25.508,56.86-56.86,56.86h-21.053  v-1.365c25.438-5.652,44.522-28.38,44.522-55.495c0-10.669-2.989-21.089-8.643-30.136l-40.23-64.368  c-7.989-12.781-20.399-21.611-34.606-25.076c4.392-1.071,8.951-1.647,13.611-1.647h6.17c19.733,0,37.757,9.991,48.216,26.723  L347.531,313.7z M211.478,0h-33.391c12.295,0,22.261,9.966,22.261,22.261v22.261H98.771H43.119  c-20.746,0-36.774,14.189-41.717,33.391h215.641c9.22,0,16.696-7.475,16.696-16.696V44.522V22.261  C233.739,9.966,223.773,0,211.478,0z M467.478,44.522h-1.402h-31.989h-22.261V22.261C411.826,9.966,401.86,0,389.565,0h-33.391  c12.295,0,22.261,9.966,22.261,22.261v22.261h-83.478c-9.22,0-16.696,7.475-16.696,16.696s7.475,16.696,16.696,16.696h150.261  c12.295,0,22.261,9.966,22.261,22.261v11.13H512V89.043C512,64.455,492.066,44.522,467.478,44.522z"/>
<g>
</g>
<g>
</g>
<g>
</g>
<g>
</g>
<g>
</g>
<g>
</g>
<g>
</g>
<g>
</g>
<g>
</g>
<g>
</g>
<g>
</g>
<g>
</g>
<g>
</g>
<g>
</g>
<g>
</g>
</svg>
