<?xml version="1.0" encoding="iso-8859-1"?>
<!-- Generator: Adobe Illustrator 19.0.0, SVG Export Plug-In . SVG Version: 6.00 Build 0)  -->
<svg xmlns="http://www.w3.org/2000/svg" xmlns:xlink="http://www.w3.org/1999/xlink" version="1.1" id="Layer_1" x="0px" y="0px" viewBox="0 0 512 512" style="enable-background:new 0 0 512 512;" xml:space="preserve">
<path style="fill:#444444;" d="M201.086,10.338l10.393,145.488v22.261h-54.539v-22.261l10.393-145.488  C167.747,4.512,171.481,0,177.32,0h12.663C195.823,0,200.671,4.512,201.086,10.338z M322.783,100.174h-11.13  c-4.055,0-6.743,1.084-10.017,2.979c-6.654,3.849-11.13,11.044-11.13,19.282v55.652h54.539v-55.652  C345.043,110.14,335.077,100.174,322.783,100.174z"/>
<g>
	<path style="fill:#6D6D6D;" d="M189.217,155.826h22.261v22.261h-55.652v-22.261l10.392-145.488c0.294-4.113,2.802-7.563,6.303-9.24   c3.502,1.677,6.009,5.128,6.303,9.24L189.217,155.826z M306.087,100.904c-9.596,2.475-16.696,11.163-16.696,21.531v55.652h33.391   v-55.652C322.783,112.066,315.682,103.378,306.087,100.904z"/>
	<path style="fill:#6D6D6D;" d="M322.783,478.609H189.217c-36.883,0-66.783-29.9-66.783-66.783V178.087   c0-12.295,9.966-22.261,22.261-22.261h222.609c12.295,0,22.261,9.966,22.261,22.261v233.739   C389.565,448.709,359.665,478.609,322.783,478.609z"/>
</g>
<path style="fill:#999999;" d="M289.391,467.478H189.217c-36.883,0-66.783-29.9-66.783-66.783V178.087  c0-12.295,9.966-22.261,22.261-22.261h189.217c12.295,0,22.261,9.966,22.261,22.261v222.609  C356.174,437.579,326.274,467.478,289.391,467.478z"/>
<path style="fill:#444444;" d="M225.391,322.783c0-4.61,3.738-8.348,8.348-8.348h44.522c4.61,0,8.348,3.738,8.348,8.348  s-3.738,8.348-8.348,8.348h-44.522C229.129,331.13,225.391,327.393,225.391,322.783z M300.522,347.826h-89.043  c-4.61,0-8.348,3.738-8.348,8.348s3.738,8.348,8.348,8.348h89.043c4.61,0,8.348-3.738,8.348-8.348S305.132,347.826,300.522,347.826z   M278.261,381.217h-44.522c-4.61,0-8.348,3.738-8.348,8.348c0,4.61,3.738,8.348,8.348,8.348h44.522c4.61,0,8.348-3.738,8.348-8.348  C286.609,384.955,282.871,381.217,278.261,381.217z"/>
<path style="fill:#FF9600;" d="M347.49,367.304h42.075v77.913c0,36.883-29.9,66.783-66.783,66.783H189.217  c-36.883,0-66.783-29.9-66.783-66.783v-77.913h42.075c5.306,0,9.874,3.745,10.915,8.948l10.214,51.071  c2.081,10.405,11.217,17.896,21.829,17.896h97.066c10.612,0,19.748-7.49,21.829-17.896l10.214-51.071  C337.616,371.05,342.184,367.304,347.49,367.304z"/>
<path style="fill:#FFB933;" d="M289.391,512H189.217c-36.883,0-66.783-29.9-66.783-66.783v-77.913h42.075  c5.306,0,9.874,3.745,10.915,8.948l10.214,51.071c2.081,10.405,11.217,17.896,21.829,17.896h97.066  c10.612,0,19.748-7.49,21.829-17.896l10.214-51.071c1.041-5.202,5.609-8.948,10.914-8.948h8.682v77.913  C356.174,482.1,326.274,512,289.391,512z"/>
<path style="fill:#AACE80;" d="M322.783,267.13H189.217c-6.147,0-11.13-4.983-11.13-11.13v-44.522c0-6.147,4.983-11.13,11.13-11.13  h133.565c6.147,0,11.13,4.983,11.13,11.13V256C333.913,262.147,328.93,267.13,322.783,267.13z"/>
<path style="fill:#C1E296;" d="M233.739,267.13h-33.391v-66.783h33.391V267.13z"/>
<path style="fill:#57682E;" d="M308.87,228.174v11.13c0,4.61-3.738,8.348-8.348,8.348s-8.348-3.738-8.348-8.348v-11.13  c0-4.61,3.738-8.348,8.348-8.348S308.87,223.564,308.87,228.174z M267.13,219.826c-4.61,0-8.348,3.738-8.348,8.348v11.13  c0,4.61,3.738,8.348,8.348,8.348s8.348-3.738,8.348-8.348v-11.13C275.478,223.564,271.741,219.826,267.13,219.826z"/>
<g>
</g>
<g>
</g>
<g>
</g>
<g>
</g>
<g>
</g>
<g>
</g>
<g>
</g>
<g>
</g>
<g>
</g>
<g>
</g>
<g>
</g>
<g>
</g>
<g>
</g>
<g>
</g>
<g>
</g>
</svg>
