<?xml version="1.0" encoding="iso-8859-1"?>
<!-- Generator: Adobe Illustrator 19.0.0, SVG Export Plug-In . SVG Version: 6.00 Build 0)  -->
<svg xmlns="http://www.w3.org/2000/svg" xmlns:xlink="http://www.w3.org/1999/xlink" version="1.1" id="Layer_1" x="0px" y="0px" viewBox="0 0 512 512" style="enable-background:new 0 0 512 512;" xml:space="preserve">
<path style="fill:#5D7EAC;" d="M256,23.273c-135.238,0-244.87,109.405-244.87,244.364C11.13,402.594,120.762,512,256,512  s244.87-109.405,244.87-244.363C500.87,132.678,391.238,23.273,256,23.273z M256,448.253c-99.958,0-180.991-80.865-180.991-180.617  S156.041,87.019,256,87.019s180.991,80.865,180.991,180.617S355.958,448.253,256,448.253z"/>
<path style="fill:#344966;" d="M256,56.664c-116.758,0-211.409,94.455-211.409,210.973c0,116.516,94.651,210.972,211.409,210.972  s211.409-94.456,211.409-210.972C467.409,151.119,372.758,56.664,256,56.664z M256,448.253  c-99.958,0-180.991-80.865-180.991-180.617S156.041,87.019,256,87.019s180.991,80.865,180.991,180.617S355.958,448.253,256,448.253z  "/>
<path style="fill:#5D7EAC;" d="M488.26,401.455L488.26,401.455c-8.05,13.914-25.878,18.681-39.821,10.648L258.287,302.546h-4.575  L63.561,412.103c-13.943,8.033-31.772,3.266-39.821-10.648l0,0c-8.05-13.914-3.272-31.706,10.67-39.739l192.439-110.875V29.091  C226.849,13.025,239.9,0,256,0s29.151,13.025,29.151,29.091V250.84l192.439,110.875C491.532,369.749,496.309,387.541,488.26,401.455  z"/>
<path style="fill:#809DED;" d="M278.261,267.13h-55.652v15.471L43.731,385.663c-7.543,4.346-16.22,4.939-23.875,2.371  c-0.395-10.435,4.862-20.734,14.553-26.318l164.166-94.585l0,0l28.274-16.289V29.091c0-9.475,4.541-17.889,11.57-23.199  c7.028,5.31,11.57,13.724,11.57,23.199v221.751L278.261,267.13z M477.589,361.716L289.391,253.284v30.719l182.182,104.966  c6.32,3.642,13.437,4.645,20.082,3.366C493.902,380.521,488.615,368.068,477.589,361.716z"/>
<path style="fill:#ABC5FF;" d="M325.963,267.637c0,38.559-31.323,69.818-69.963,69.818s-69.963-31.259-69.963-69.818  s31.323-69.818,69.963-69.818S325.963,229.077,325.963,267.637z"/>
<path style="fill:#5D7EAC;" d="M303.702,267.637c0,26.29-21.357,47.604-47.702,47.604s-47.702-21.313-47.702-47.604  c0-26.291,21.357-47.604,47.702-47.604S303.702,241.346,303.702,267.637z"/>
<path style="fill:#809DED;" d="M279.32,267.637c0,12.853-10.441,23.273-23.32,23.273c-12.879,0-23.32-10.419-23.32-23.273  s10.441-23.273,23.32-23.273C268.879,244.364,279.32,254.783,279.32,267.637z"/>
<path style="fill:#DBD1AF;" d="M334.07,391.129c2.263,4.017,0.84,9.108-3.177,11.37c-22.736,12.806-48.633,19.574-74.892,19.574  c-26.259,0-52.157-6.77-74.897-19.575c-4.017-2.262-5.439-7.353-3.177-11.37c2.262-4.017,7.353-5.439,11.37-3.177  c20.243,11.401,43.309,17.427,66.704,17.427s46.458-6.026,66.7-17.425C326.715,385.691,331.806,387.111,334.07,391.129z   M193.724,139.605c-2.224-4.038-7.302-5.511-11.339-3.286c-48.723,26.828-78.992,77.961-78.992,133.446  c0,4.61,3.738,8.348,8.348,8.348s8.348-3.738,8.348-8.348c0-49.399,26.956-94.929,70.349-118.821  C194.477,148.72,195.948,143.644,193.724,139.605z M329.614,136.319c-4.037-2.225-9.115-0.752-11.339,3.286  c-2.224,4.039-0.752,9.116,3.286,11.34c43.393,23.893,70.349,69.422,70.349,118.821c0,4.61,3.738,8.348,8.348,8.348  s8.348-3.738,8.348-8.348C408.606,214.28,378.339,163.145,329.614,136.319z"/>
<g>
</g>
<g>
</g>
<g>
</g>
<g>
</g>
<g>
</g>
<g>
</g>
<g>
</g>
<g>
</g>
<g>
</g>
<g>
</g>
<g>
</g>
<g>
</g>
<g>
</g>
<g>
</g>
<g>
</g>
</svg>
