<?xml version="1.0" encoding="iso-8859-1"?>
<!-- Generator: Adobe Illustrator 19.0.0, SVG Export Plug-In . SVG Version: 6.00 Build 0)  -->
<svg xmlns="http://www.w3.org/2000/svg" xmlns:xlink="http://www.w3.org/1999/xlink" version="1.1" id="Layer_1" x="0px" y="0px" viewBox="0 0 512 512" style="enable-background:new 0 0 512 512;" xml:space="preserve">
<path style="fill:#ABC5FF;" d="M389.565,189.217v122.435h-33.391h-44.522H0V100.174c0-6.147,4.983-11.13,11.13-11.13h333.913  c6.147,0,11.13,4.983,11.13,11.13v89.043H389.565z"/>
<path style="fill:#5D7EAC;" d="M97.391,122.435V256c0,4.61-3.738,8.348-8.348,8.348c-4.61,0-8.348-3.738-8.348-8.348V122.435  c0-4.61,3.738-8.348,8.348-8.348C93.654,114.087,97.391,117.825,97.391,122.435z M44.522,114.087c-4.61,0-8.348,3.738-8.348,8.348  V256c0,4.61,3.738,8.348,8.348,8.348S52.87,260.61,52.87,256V122.435C52.87,117.825,49.132,114.087,44.522,114.087z   M178.087,114.087c-4.61,0-8.348,3.738-8.348,8.348V256c0,4.61,3.738,8.348,8.348,8.348c4.61,0,8.348-3.738,8.348-8.348V122.435  C186.435,117.825,182.697,114.087,178.087,114.087z M133.565,114.087c-4.61,0-8.348,3.738-8.348,8.348V256  c0,4.61,3.738,8.348,8.348,8.348c4.61,0,8.348-3.738,8.348-8.348V122.435C141.913,117.825,138.175,114.087,133.565,114.087z   M267.13,114.087c-4.61,0-8.348,3.738-8.348,8.348V256c0,4.61,3.738,8.348,8.348,8.348s8.348-3.738,8.348-8.348V122.435  C275.478,117.825,271.741,114.087,267.13,114.087z M222.609,114.087c-4.61,0-8.348,3.738-8.348,8.348V256  c0,4.61,3.738,8.348,8.348,8.348c4.61,0,8.348-3.738,8.348-8.348V122.435C230.957,117.825,227.219,114.087,222.609,114.087z   M311.652,114.087c-4.61,0-8.348,3.738-8.348,8.348V256c0,4.61,3.738,8.348,8.348,8.348S320,260.61,320,256V122.435  C320,117.825,316.262,114.087,311.652,114.087z"/>
<path style="fill:#FFB933;" d="M378.435,166.957h83.611c9.83,0,18.498,6.448,21.323,15.864L512,278.262v44.521  c0,12.295-9.966,22.261-22.261,22.261H356.174V189.217C356.174,176.923,366.14,166.957,378.435,166.957z"/>
<path style="fill:#FF9600;" d="M512,278.261v44.522c0,12.295-9.966,22.261-22.261,22.261h-33.391  c12.295,0,22.261-9.966,22.261-22.261v-44.522l-28.632-95.44c-2.825-9.416-11.491-15.864-21.321-15.864h33.391  c9.83,0,18.498,6.448,21.321,15.864L512,278.261z"/>
<path style="fill:#ABC5FF;" d="M512,278.261h-66.783c-6.147,0-11.13-4.983-11.13-11.13v-44.522c0-6.147,4.983-11.13,11.13-11.13  h46.748L512,278.261z"/>
<path style="fill:#5D7EAC;" d="M512,278.261h-33.391l-20.035-66.783h33.391L512,278.261z"/>
<path style="fill:#444444;" d="M389.565,311.652v33.391H22.261C9.966,345.043,0,335.077,0,322.783v-33.391h367.304  C379.599,289.391,389.565,299.357,389.565,311.652z"/>
<g>
	<path style="fill:#6D6D6D;" d="M389.565,311.652L389.565,311.652H0v-22.261h367.304   C379.599,289.391,389.565,299.357,389.565,311.652z"/>
	<path style="fill:#6D6D6D;" d="M97.948,373.983c0,27.048-21.926,48.974-48.974,48.974S0,401.031,0,373.983   c0-27.048,21.926-48.974,48.974-48.974S97.948,346.935,97.948,373.983z M183.652,325.009c-27.048,0-48.974,21.926-48.974,48.974   c0,27.048,21.926,48.974,48.974,48.974s48.974-21.926,48.974-48.974C232.626,346.935,210.7,325.009,183.652,325.009z    M318.33,325.009c-27.048,0-48.974,21.926-48.974,48.974c0,27.048,21.926,48.974,48.974,48.974s48.974-21.926,48.974-48.974   C367.304,346.935,345.378,325.009,318.33,325.009z M463.026,325.009c-27.048,0-48.974,21.926-48.974,48.974   c0,27.048,21.926,48.974,48.974,48.974S512,401.031,512,373.983C512,346.935,490.074,325.009,463.026,325.009z"/>
</g>
<path style="fill:#999999;" d="M77.913,373.983c0,23.614-16.715,43.321-38.957,47.945C16.715,417.303,0,397.597,0,373.983  c0-23.614,16.715-43.321,38.957-47.945C61.198,330.662,77.913,350.368,77.913,373.983z M173.635,326.037  c-22.242,4.624-38.957,24.331-38.957,47.945c0,23.614,16.715,43.321,38.957,47.945c22.242-4.624,38.957-24.331,38.957-47.945  C212.591,350.368,195.877,330.662,173.635,326.037z M453.009,326.037c-22.242,4.624-38.957,24.331-38.957,47.945  c0,23.614,16.715,43.321,38.957,47.945c22.242-4.624,38.957-24.331,38.957-47.945C491.965,350.368,475.251,330.662,453.009,326.037z   M308.313,326.037c-22.242,4.624-38.957,24.331-38.957,47.945c0,23.614,16.715,43.321,38.957,47.945  c22.242-4.624,38.957-24.331,38.957-47.945C347.27,350.368,330.555,330.662,308.313,326.037z"/>
<path style="fill:#444444;" d="M67.339,373.983c0,10.143-8.222,18.365-18.365,18.365s-18.365-8.222-18.365-18.365  c0-10.143,8.222-18.365,18.365-18.365S67.339,363.839,67.339,373.983z M183.652,355.617c-10.143,0-18.365,8.222-18.365,18.365  c0,10.143,8.222,18.365,18.365,18.365s18.365-8.222,18.365-18.365C202.017,363.839,193.795,355.617,183.652,355.617z   M318.33,355.617c-10.143,0-18.365,8.222-18.365,18.365c0,10.143,8.222,18.365,18.365,18.365c10.143,0,18.365-8.222,18.365-18.365  C336.696,363.839,328.474,355.617,318.33,355.617z M463.026,355.617c-10.143,0-18.365,8.222-18.365,18.365  c0,10.143,8.222,18.365,18.365,18.365c10.143,0,18.365-8.222,18.365-18.365C481.391,363.839,473.169,355.617,463.026,355.617z"/>
<g>
</g>
<g>
</g>
<g>
</g>
<g>
</g>
<g>
</g>
<g>
</g>
<g>
</g>
<g>
</g>
<g>
</g>
<g>
</g>
<g>
</g>
<g>
</g>
<g>
</g>
<g>
</g>
<g>
</g>
</svg>
