<?xml version="1.0" encoding="iso-8859-1"?>
<!-- Generator: Adobe Illustrator 19.0.0, SVG Export Plug-In . SVG Version: 6.00 Build 0)  -->
<svg xmlns="http://www.w3.org/2000/svg" xmlns:xlink="http://www.w3.org/1999/xlink" version="1.1" id="Layer_1" x="0px" y="0px" viewBox="0 0 512 512" style="enable-background:new 0 0 512 512;" xml:space="preserve">
<path style="fill:#999999;" d="M283.055,237.675l80.382,113.092l-36.699,25.315l-71.029-99.932l-61.024,85.857l-36.699-25.315  l70.377-99.015L137.31,109.57l36.699-25.315l81.701,114.946l72.861-102.51l36.699,25.315L283.055,237.675z"/>
<path style="fill:#BFBFBF;" d="M363.437,350.767l-18.35,12.658l-75.705-106.513l13.673-19.237L363.437,350.767z M328.57,96.691  l-72.861,102.51L174.008,84.255l-18.349,12.658l86.377,121.527l-84.05,118.252l18.35,12.658l170.584-240L328.57,96.691z"/>
<path style="fill:#999999;" d="M188.305,50.72l10.246,68.064l-36.699,25.315l-61.42-32.764c-3.059-1.632-5.689-3.941-7.683-6.748  L70.085,72.7c-7.096-9.984-4.634-23.743,5.501-30.734l55.049-37.973c10.134-6.991,24.102-4.565,31.199,5.419l22.664,31.886  C186.491,44.106,187.795,47.331,188.305,50.72z M427.735,34.121l-38.546,54.231c-7.096,9.984-21.063,12.409-31.197,5.419  c-10.134-6.991-12.597-20.75-5.501-30.734l38.546-54.231c-20.269-13.981-48.204-9.128-62.396,10.839l-25.697,36.154  c-14.192,19.967-9.266,47.488,11.002,61.469l36.699,25.315c20.269,13.981,48.204,9.128,62.396-10.839l25.697-36.154  C452.929,75.623,448.002,48.103,427.735,34.121z"/>
<path style="fill:#6D6D6D;" d="M118.986,98.537l61.42,32.764l-18.553,12.798l-61.42-32.764c-3.059-1.632-5.689-3.941-7.683-6.748  L70.085,72.7c-7.096-9.984-4.634-23.743,5.501-30.734l18.553-12.798c-10.134,6.991-12.597,20.75-5.501,30.734l22.664,31.886  C113.297,94.595,115.927,96.906,118.986,98.537z M427.735,34.121l-3.446,4.848c6.522,13.816,5.609,30.583-3.901,43.963  l-25.697,36.154c-14.191,19.967-42.128,24.82-62.396,10.839l18.35,12.658c20.269,13.981,48.204,9.128,62.396-10.839l25.697-36.154  C452.929,75.623,448.002,48.103,427.735,34.121z"/>
<path style="fill:#809DED;" d="M443.593,502.019L443.593,502.019c-25.334,17.476-60.252,11.41-77.992-13.548l-77.09-108.462  c-7.097-9.984-4.634-23.746,5.501-30.737L349.06,311.3c10.133-6.99,24.101-4.565,31.196,5.419l77.089,108.459  C475.086,450.139,468.929,484.542,443.593,502.019z M217.99,348.452l-55.049-37.973c-10.133-6.99-24.101-4.565-31.196,5.419  L54.655,424.358c-17.741,24.96-11.583,59.363,13.753,76.84l0,0c25.334,17.476,60.252,11.41,77.992-13.548l77.09-108.462  C230.587,369.205,228.124,355.443,217.99,348.452z"/>
<path style="fill:#5D7EAC;" d="M455.884,490.452c-3.389,4.342-7.494,8.258-12.289,11.566l0,0  c-25.335,17.477-60.255,11.411-77.995-13.548l-77.091-108.462c-7.096-9.984-4.634-23.743,5.501-30.734l27.524-18.986  c-10.134,6.991-12.597,20.75-5.501,30.734l77.09,108.462C407.507,489.717,433.18,497.531,455.884,490.452z M217.991,348.453  l-27.524-18.986c10.134,6.991,12.597,20.75,5.501,30.734l-77.091,108.462c-14.383,20.235-40.056,28.049-62.76,20.97  c3.389,4.342,7.494,8.258,12.289,11.566l0,0c25.335,17.476,60.255,11.411,77.994-13.548l77.09-108.462  C230.587,369.204,228.125,355.444,217.991,348.453z"/>
<path style="fill:#344966;" d="M187.698,380.328l-70.667,99.423c-2.661,3.744-7.899,4.654-11.699,2.032  c-3.8-2.621-4.724-7.781-2.062-11.526l70.667-99.423c2.661-3.744,7.899-4.654,11.699-2.032  C189.435,371.423,190.358,376.584,187.698,380.328z M152.243,341.871c-3.8-2.621-9.038-1.712-11.699,2.032l-70.666,99.423  c-2.661,3.744-1.737,8.904,2.062,11.526c3.8,2.621,9.038,1.712,11.699-2.032l70.667-99.423  C156.967,349.652,156.043,344.492,152.243,341.871z M442.123,443.326l-70.667-99.423c-2.661-3.744-7.899-4.654-11.699-2.032  c-3.8,2.621-4.724,7.781-2.062,11.526l70.667,99.423c2.661,3.744,7.899,4.654,11.699,2.032  C443.86,452.23,444.783,447.069,442.123,443.326z M338.065,370.834c-2.661-3.744-7.899-4.654-11.699-2.032  c-3.8,2.621-4.724,7.781-2.062,11.526l70.667,99.423c2.661,3.744,7.899,4.654,11.699,2.032c3.8-2.621,4.724-7.781,2.062-11.526  L338.065,370.834z"/>
<g>
</g>
<g>
</g>
<g>
</g>
<g>
</g>
<g>
</g>
<g>
</g>
<g>
</g>
<g>
</g>
<g>
</g>
<g>
</g>
<g>
</g>
<g>
</g>
<g>
</g>
<g>
</g>
<g>
</g>
</svg>
