<?xml version="1.0" encoding="iso-8859-1"?>
<!-- Generator: Adobe Illustrator 19.0.0, SVG Export Plug-In . SVG Version: 6.00 Build 0)  -->
<svg xmlns="http://www.w3.org/2000/svg" xmlns:xlink="http://www.w3.org/1999/xlink" version="1.1" id="Layer_1" x="0px" y="0px" viewBox="0 0 512 512" style="enable-background:new 0 0 512 512;" xml:space="preserve">
<path style="fill:#FFD34E;" d="M456.348,478.609v22.261c0,6.147-4.983,11.13-11.13,11.13H66.783c-6.147,0-11.13-4.983-11.13-11.13  v-22.261c0-6.147,4.983-11.13,11.13-11.13h378.435C451.365,467.478,456.348,472.461,456.348,478.609z M445.217,0H66.783  c-6.147,0-11.13,4.983-11.13,11.13v22.261c0,6.147,4.983,11.13,11.13,11.13h378.435c6.147,0,11.13-4.983,11.13-11.13V11.13  C456.348,4.983,451.365,0,445.217,0z"/>
<path style="fill:#6D6D6D;" d="M200.348,356.174c0,30.736-24.917,55.652-55.652,55.652s-55.652-24.917-55.652-55.652  s24.917-55.652,55.652-55.652S200.348,325.438,200.348,356.174z M422.957,356.174c0-30.736-24.917-55.652-55.652-55.652  s-55.652,24.917-55.652,55.652s24.917,55.652,55.652,55.652S422.957,386.909,422.957,356.174z M66.783,44.522h30.72L142.024,0  H66.783c-6.147,0-11.13,4.983-11.13,11.13v22.261C55.652,39.539,60.635,44.522,66.783,44.522z M323.228,0h-90.379l-44.522,44.522  h90.379L323.228,0z M55.652,478.609v22.261c0,6.147,4.983,11.13,11.13,11.13h30.72l44.522-44.522H66.783  C60.635,467.478,55.652,472.461,55.652,478.609z M445.217,467.478h-31.165L369.53,512h75.687c6.147,0,11.13-4.983,11.13-11.13  v-22.261C456.348,472.461,451.365,467.478,445.217,467.478z M445.217,0h-31.165L369.53,44.522h75.687  c6.147,0,11.13-4.983,11.13-11.13V11.13C456.348,4.983,451.365,0,445.217,0z M188.327,512h90.379l44.522-44.522h-90.379L188.327,512  z"/>
<path style="fill:#ABC5FF;" d="M411.826,200.348v22.261H100.174v-22.261l38.646-86.954c3.573-8.038,11.546-13.22,20.342-13.22  h193.675c8.797,0,16.769,5.181,20.342,13.22L411.826,200.348z"/>
<path style="fill:#CEDEEC;" d="M411.826,200.348v22.261H100.174v-22.261l38.646-86.954c3.573-8.038,11.546-13.22,20.342-13.22H256  v100.174H411.826z"/>
<path style="fill:#999999;" d="M389.565,356.174c0,12.295-9.966,22.261-22.261,22.261c-12.295,0-22.261-9.966-22.261-22.261  c0-12.295,9.966-22.261,22.261-22.261C379.599,333.913,389.565,343.879,389.565,356.174z M144.696,333.913  c-12.295,0-22.261,9.966-22.261,22.261c0,12.295,9.966,22.261,22.261,22.261c12.295,0,22.261-9.966,22.261-22.261  C166.957,343.879,156.99,333.913,144.696,333.913z"/>
<path style="fill:#BFBFBF;" d="M367.304,356.174c0,8.234-4.483,15.408-11.13,19.259c-6.647-3.851-11.13-11.024-11.13-19.259  c0-8.235,4.483-15.408,11.13-19.259C362.821,340.766,367.304,347.94,367.304,356.174z M133.565,336.915  c-6.647,3.851-11.13,11.024-11.13,19.259c0,8.235,4.483,15.408,11.13,19.259c6.647-3.851,11.13-11.024,11.13-19.259  C144.696,347.938,140.212,340.766,133.565,336.915z"/>
<path style="fill:#5D7EAC;" d="M77.913,200.348h356.174c12.295,0,22.261,9.966,22.261,22.261V256  c0,12.295-9.966,22.261-22.261,22.261h-15.768c-4.481,0-8.45-2.719-10.259-6.819c-6.902-15.649-22.552-26.573-40.755-26.573  c-18.203,0-33.853,10.923-40.755,26.573c-1.809,4.099-5.778,6.819-10.259,6.819H195.71c-4.481,0-8.45-2.719-10.259-6.819  c-6.902-15.649-22.552-26.573-40.755-26.573s-33.853,10.923-40.755,26.573c-1.809,4.099-5.778,6.819-10.259,6.819H77.913  c-12.295,0-22.261-9.966-22.261-22.261v-33.391C55.652,210.314,65.618,200.348,77.913,200.348z"/>
<path style="fill:#344966;" d="M456.348,222.609v22.261V256c0,12.295-9.966,22.261-22.261,22.261h-15.768  c-4.481,0-8.45-2.719-10.259-6.819c-6.902-15.649-22.552-26.573-40.755-26.573h44.522c12.295,0,22.261-9.966,22.261-22.261l0,0  c0-12.295-9.966-22.261-22.261-22.261h22.261C446.382,200.348,456.348,210.314,456.348,222.609z M195.71,278.261h120.582  c4.481,0,8.45-2.719,10.259-6.819c6.901-15.649,22.551-26.573,40.754-26.573H144.696c18.203,0,33.853,10.923,40.755,26.573  C187.26,275.542,191.229,278.261,195.71,278.261z M55.652,256c0,12.295,9.966,22.261,22.261,22.261h15.768  c4.481,0,8.45-2.719,10.259-6.819c6.902-15.649,22.552-26.573,40.755-26.573H55.652V256z"/>
<g>
</g>
<g>
</g>
<g>
</g>
<g>
</g>
<g>
</g>
<g>
</g>
<g>
</g>
<g>
</g>
<g>
</g>
<g>
</g>
<g>
</g>
<g>
</g>
<g>
</g>
<g>
</g>
<g>
</g>
</svg>
