<?xml version="1.0" encoding="iso-8859-1"?>
<!-- Generator: Adobe Illustrator 19.0.0, SVG Export Plug-In . SVG Version: 6.00 Build 0)  -->
<svg xmlns="http://www.w3.org/2000/svg" xmlns:xlink="http://www.w3.org/1999/xlink" version="1.1" id="Layer_1" x="0px" y="0px" viewBox="0 0 512 512" style="enable-background:new 0 0 512 512;" xml:space="preserve">
<path style="fill:#6D6D6D;" d="M97.391,8.348v144.696c0,4.61-3.738,8.348-8.348,8.348c-4.61,0-8.348-3.738-8.348-8.348V8.348  c0-4.61,3.738-8.348,8.348-8.348C93.654,0,97.391,3.738,97.391,8.348z"/>
<path style="fill:#FFE473;" d="M456.348,512H22.261V166.957l222.609-66.783l211.478,66.783V512z"/>
<path style="fill:#FFCB39;" d="M422.957,156.412l33.391,10.545V512h-33.391V156.412z"/>
<path style="fill:#5D7EAC;" d="M400.696,211.478V256H89.043v-44.522H400.696z"/>
<path style="fill:#809DED;" d="M89.043,211.478h77.913V256H89.043V211.478z M256,211.478V256h77.913v-44.522H256z"/>
<path style="fill:#BFBFBF;" d="M400.696,333.913V512H89.043V333.913H400.696z"/>
<g>
	<path style="fill:#999999;" d="M400.696,333.913V512h-22.261V333.913H400.696z M300.522,512h22.261V333.913h-22.261V512z    M222.609,512h22.261V333.913h-22.261V512z M144.696,512h22.261V333.913h-22.261V512z"/>
	<path style="fill:#999999;" d="M512,503.652c0,4.61-3.738,8.348-8.348,8.348H8.348C3.738,512,0,508.262,0,503.652   s3.738-8.348,8.348-8.348h495.304C508.262,495.304,512,499.042,512,503.652z"/>
</g>
<g>
</g>
<g>
</g>
<g>
</g>
<g>
</g>
<g>
</g>
<g>
</g>
<g>
</g>
<g>
</g>
<g>
</g>
<g>
</g>
<g>
</g>
<g>
</g>
<g>
</g>
<g>
</g>
<g>
</g>
</svg>
