<?xml version="1.0" encoding="iso-8859-1"?>
<!-- Generator: Adobe Illustrator 19.0.0, SVG Export Plug-In . SVG Version: 6.00 Build 0)  -->
<svg xmlns="http://www.w3.org/2000/svg" xmlns:xlink="http://www.w3.org/1999/xlink" version="1.1" id="Layer_1" x="0px" y="0px" viewBox="0 0 512 512" style="enable-background:new 0 0 512 512;" xml:space="preserve">
<path style="fill:#344966;" d="M342.261,30.609v100.174c0,4.61-3.738,8.348-8.348,8.348s-8.348-3.738-8.348-8.348V30.609  c0-7.672-6.241-13.913-13.913-13.913H155.826c-7.672,0-13.913,6.241-13.913,13.913v11.13c0,4.61-3.738,8.348-8.348,8.348  c-4.61,0-8.348-3.738-8.348-8.348v-11.13C125.217,13.731,138.948,0,155.826,0h155.826C328.53,0,342.261,13.731,342.261,30.609z   M470.261,180.87c-4.61,0-8.348,3.738-8.348,8.348v13.913h-50.087c-4.61,0-8.348,3.738-8.348,8.348c0,4.61,3.738,8.348,8.348,8.348  h50.087v27.826h-58.435c-4.61,0-8.348,3.738-8.348,8.348s3.738,8.348,8.348,8.348h58.435v27.826h-58.435  c-4.61,0-8.348,3.738-8.348,8.348s3.738,8.348,8.348,8.348h58.435v27.826h-58.435c-4.61,0-8.348,3.738-8.348,8.348  s3.738,8.348,8.348,8.348h58.435v27.826h-50.087c-4.61,0-8.348,3.738-8.348,8.348c0,4.61,3.738,8.348,8.348,8.348h50.087v58.435  c0,4.61,3.738,8.348,8.348,8.348c4.61,0,8.348-3.738,8.348-8.348v-267.13C478.609,184.607,474.871,180.87,470.261,180.87z"/>
<path style="fill:#BFBFBF;" d="M434.087,207.768v270.84H267.13h-33.391h-33.391V200.348h36.236c1.262-1.41,2.884-2.512,4.766-3.139  l89.043-29.682c2.285-0.761,4.755-0.761,7.04,0l89.043,29.682C431.022,198.724,434.087,202.977,434.087,207.768z"/>
<path style="fill:#5D7EAC;" d="M233.739,108.197v359.282H33.391V108.197c0-4.791,3.065-9.043,7.611-10.559l59.172-19.724V44.522  c0-6.147,4.983-11.13,11.13-11.13h44.522c6.147,0,11.13,4.983,11.13,11.13v33.391l59.172,19.724  C230.674,99.152,233.739,103.405,233.739,108.197z"/>
<path style="fill:#344966;" d="M233.739,119.327v348.151h-33.391V100.174l25.78,8.594  C230.674,110.283,233.739,114.536,233.739,119.327z"/>
<path style="fill:#809DED;" d="M233.739,108.197v14.238H133.565v345.043H77.913V122.435H33.391v-14.238  c0-4.791,3.065-9.043,7.611-10.559l89.043-29.682c2.285-0.761,4.755-0.761,7.04,0l89.043,29.682  C230.674,99.152,233.739,103.405,233.739,108.197z"/>
<path style="fill:#999999;" d="M367.304,189.217h-66.783v-55.652c0-6.147,4.983-11.13,11.13-11.13h44.522  c6.147,0,11.13,4.983,11.13,11.13V189.217z M478.609,456.348h-44.522V208.371c0-4.791-3.065-9.043-7.611-10.559l-25.78-8.594v267.13  H33.391c-6.147,0-11.13,4.983-11.13,11.13V512h467.478v-44.522C489.739,461.331,484.756,456.348,478.609,456.348z"/>
<path style="fill:#E2E2E2;" d="M434.087,196.638v14.84H333.913v244.87h-55.652v-244.87h-44.522v-14.84  c0-4.791,3.065-9.043,7.611-10.559l89.043-29.682c2.285-0.761,4.755-0.761,7.04,0l89.043,29.682  C431.022,187.593,434.087,191.846,434.087,196.638z"/>
<path style="fill:#6D6D6D;" d="M512,503.652c0,4.61-3.738,8.348-8.348,8.348H8.348C3.738,512,0,508.262,0,503.652  s3.738-8.348,8.348-8.348h495.304C508.262,495.304,512,499.042,512,503.652z"/>
<g>
</g>
<g>
</g>
<g>
</g>
<g>
</g>
<g>
</g>
<g>
</g>
<g>
</g>
<g>
</g>
<g>
</g>
<g>
</g>
<g>
</g>
<g>
</g>
<g>
</g>
<g>
</g>
<g>
</g>
</svg>
