<?xml version="1.0" encoding="iso-8859-1"?>
<!-- Generator: Adobe Illustrator 19.0.0, SVG Export Plug-In . SVG Version: 6.00 Build 0)  -->
<svg xmlns="http://www.w3.org/2000/svg" xmlns:xlink="http://www.w3.org/1999/xlink" version="1.1" id="Layer_1" x="0px" y="0px" viewBox="0 0 512 512" style="enable-background:new 0 0 512 512;" xml:space="preserve">
<path style="fill:#F5D472;" d="M467.478,211.478c0,116.796-94.682,211.478-211.478,211.478S44.522,328.274,44.522,211.478  S139.204,0,256,0S467.478,94.682,467.478,211.478z"/>
<path style="fill:#C9BD9D;" d="M434.087,467.478v33.391c0,6.147-4.983,11.13-11.13,11.13H89.043c-6.147,0-11.13-4.983-11.13-11.13  v-33.391c0-6.147,4.983-11.13,11.13-11.13h11.13v-77.913h311.652v77.913h11.13C429.104,456.348,434.087,461.331,434.087,467.478z"/>
<path style="fill:#9E9788;" d="M434.087,467.478v33.391c0,6.147-4.983,11.13-11.13,11.13h-22.261v-33.391  c0-12.295-9.966-22.261-22.261-22.261H100.174v-33.391h233.739c12.295,0,22.261-9.966,22.261-22.261v-33.391h55.652v33.391v55.652  h11.13C429.104,456.348,434.087,461.331,434.087,467.478z"/>
<path style="fill:#FF9600;" d="M411.826,211.478v189.217H100.174V211.478c0-86.061,69.766-155.826,155.826-155.826l0,0  C342.061,55.652,411.826,125.418,411.826,211.478z"/>
<path style="fill:#FF6600;" d="M411.826,211.478v189.217h-55.652V211.478c0-76.562-55.217-140.226-128-153.345  c9.029-1.628,18.327-2.481,27.826-2.481l0,0C342.061,55.652,411.826,125.418,411.826,211.478z"/>
<path style="fill:#FFB933;" d="M272.696,111.304c0,9.22-7.475,16.696-16.696,16.696c-46.03,0-83.478,37.448-83.478,83.478  c0,9.22-7.475,16.696-16.696,16.696s-16.696-7.475-16.696-16.696c0-64.442,52.428-116.87,116.87-116.87  C265.22,94.609,272.696,102.084,272.696,111.304z M155.826,256c-9.22,0-16.696,7.475-16.696,16.696  c0,9.22,7.475,16.696,16.696,16.696s16.696-7.475,16.696-16.696C172.522,263.475,165.047,256,155.826,256z"/>
<g>
</g>
<g>
</g>
<g>
</g>
<g>
</g>
<g>
</g>
<g>
</g>
<g>
</g>
<g>
</g>
<g>
</g>
<g>
</g>
<g>
</g>
<g>
</g>
<g>
</g>
<g>
</g>
<g>
</g>
</svg>
