<?xml version="1.0" encoding="iso-8859-1"?>
<!-- Generator: Adobe Illustrator 19.0.0, SVG Export Plug-In . SVG Version: 6.00 Build 0)  -->
<svg xmlns="http://www.w3.org/2000/svg" xmlns:xlink="http://www.w3.org/1999/xlink" version="1.1" id="Layer_1" x="0px" y="0px" viewBox="0 0 512 512" style="enable-background:new 0 0 512 512;" xml:space="preserve">
<path style="fill:#CEDEEC;" d="M434.087,512H77.913c-12.295,0-22.261-9.966-22.261-22.261V22.261C55.652,9.966,65.618,0,77.913,0  h356.174c12.295,0,22.261,9.966,22.261,22.261v467.478C456.348,502.034,446.382,512,434.087,512z"/>
<path style="fill:#ABC5FF;" d="M456.348,22.261v467.478c0,12.295-9.966,22.261-22.261,22.261h-33.391  c12.295,0,22.261-9.966,22.261-22.261V22.261C422.957,9.966,412.99,0,400.696,0h33.391C446.382,0,456.348,9.966,456.348,22.261z   M300.522,100.174l44.522,77.114l-44.522,77.114h-89.043l-44.522-77.114l44.522-77.114H300.522z M294.957,177.288  c0-21.515-17.441-38.957-38.957-38.957s-38.957,17.441-38.957,38.957s17.441,38.957,38.957,38.957S294.957,198.803,294.957,177.288z  "/>
<path style="fill:#344966;" d="M395.13,185.636c4.61,0,8.348-3.738,8.348-8.348s-3.738-8.348-8.348-8.348h-45.267L307.751,96  c-1.491-2.582-4.246-4.174-7.229-4.174h-89.043c-2.983,0-5.738,1.592-7.229,4.174l-42.112,72.94H116.87  c-4.61,0-8.348,3.738-8.348,8.348s3.738,8.348,8.348,8.348h45.267l42.112,72.94c1.491,2.582,4.246,4.174,7.229,4.174h89.043  c2.983,0,5.738-1.592,7.229-4.174l42.112-72.94H395.13z M295.702,246.054h-79.405l-34.883-60.418h28.033  c3.956,22.114,23.317,38.957,46.552,38.957s42.596-16.843,46.552-38.957h28.033L295.702,246.054z M285.442,185.636  c-3.644,12.831-15.459,22.261-29.442,22.261c-13.983,0-25.798-9.43-29.442-22.261H285.442z M226.558,168.94  c3.644-12.831,15.459-22.261,29.442-22.261c13.983,0,25.798,9.43,29.442,22.261H226.558z M302.552,168.94  c-3.956-22.114-23.317-38.957-46.552-38.957s-42.596,16.843-46.552,38.957h-28.033l34.883-60.418h79.405l34.883,60.418H302.552z   M304.707,73.283l22.261-33.391c1.548-2.322,4.154-3.718,6.945-3.718h33.391c4.61,0,8.348,3.738,8.348,8.348  s-3.738,8.348-8.348,8.348h-28.924l-19.783,29.674c-1.608,2.413-4.256,3.718-6.953,3.719c-1.592,0-3.2-0.454-4.622-1.404  C303.185,82.302,302.149,77.118,304.707,73.283z M392.348,44.522c0-4.61,3.738-8.348,8.348-8.348h11.13  c4.61,0,8.348,3.738,8.348,8.348s-3.738,8.348-8.348,8.348h-11.13C396.085,52.87,392.348,49.132,392.348,44.522z M136.348,311.652  c0-4.61,3.738-8.348,8.348-8.348h28.924l19.782-29.674c2.557-3.837,7.741-4.873,11.576-2.315c3.837,2.557,4.873,7.74,2.315,11.576  l-22.261,33.391c-1.548,2.322-4.154,3.718-6.945,3.718h-33.391C140.085,320,136.348,316.262,136.348,311.652z M119.652,311.652  c0,4.61-3.738,8.348-8.348,8.348h-11.13c-4.61,0-8.348-3.738-8.348-8.348s3.738-8.348,8.348-8.348h11.13  C115.915,303.304,119.652,307.042,119.652,311.652z M119.652,422.955c0,4.61-3.738,8.348-8.348,8.348h-11.13  c-4.61,0-8.348-3.738-8.348-8.348s3.738-8.348,8.348-8.348h11.13C115.915,414.608,119.652,418.344,119.652,422.955z   M119.652,456.348c0,4.61-3.738,8.348-8.348,8.348h-11.13c-4.61,0-8.348-3.738-8.348-8.348S95.564,448,100.174,448h11.13  C115.915,448,119.652,451.738,119.652,456.348z M91.826,44.522c0-4.61,3.738-8.348,8.348-8.348h66.783  c4.61,0,8.348,3.738,8.348,8.348s-3.738,8.348-8.348,8.348h-66.783C95.564,52.87,91.826,49.132,91.826,44.522z M91.826,77.913  c0-4.61,3.738-8.348,8.348-8.348h33.391c4.61,0,8.348,3.738,8.348,8.348s-3.738,8.348-8.348,8.348h-33.391  C95.564,86.261,91.826,82.523,91.826,77.913z M242.087,422.957c0,4.61-3.738,8.348-8.348,8.348h-89.043  c-4.61,0-8.348-3.738-8.348-8.348c0-4.61,3.738-8.348,8.348-8.348h89.043C238.349,414.609,242.087,418.346,242.087,422.957z   M197.565,456.348c0,4.61-3.738,8.348-8.348,8.348h-44.522c-4.61,0-8.348-3.738-8.348-8.348s3.738-8.348,8.348-8.348h44.522  C193.828,448,197.565,451.738,197.565,456.348z M297.739,422.955c0,4.61-3.738,8.348-8.348,8.348h-11.13  c-4.61,0-8.348-3.738-8.348-8.348s3.738-8.348,8.348-8.348h11.13C294.002,414.608,297.739,418.344,297.739,422.955z   M297.739,456.348c0,4.61-3.738,8.348-8.348,8.348h-11.13c-4.61,0-8.348-3.738-8.348-8.348s3.738-8.348,8.348-8.348h11.13  C294.002,448,297.739,451.738,297.739,456.348z M420.174,422.957c0,4.61-3.738,8.348-8.348,8.348h-89.043  c-4.61,0-8.348-3.738-8.348-8.348c0-4.61,3.738-8.348,8.348-8.348h89.043C416.436,414.609,420.174,418.346,420.174,422.957z   M375.652,456.348c0,4.61-3.738,8.348-8.348,8.348h-44.522c-4.61,0-8.348-3.738-8.348-8.348s3.738-8.348,8.348-8.348h44.522  C371.915,448,375.652,451.738,375.652,456.348z M119.652,389.565c0,4.61-3.738,8.348-8.348,8.348h-11.13  c-4.61,0-8.348-3.738-8.348-8.348c0-4.61,3.738-8.348,8.348-8.348h11.13C115.915,381.217,119.652,384.955,119.652,389.565z   M136.348,389.565c0-4.61,3.738-8.348,8.348-8.348h44.522c4.61,0,8.348,3.738,8.348,8.348c0,4.61-3.738,8.348-8.348,8.348h-44.522  C140.085,397.913,136.348,394.175,136.348,389.565z M297.739,389.565c0,4.61-3.738,8.348-8.348,8.348h-11.13  c-4.61,0-8.348-3.738-8.348-8.348c0-4.61,3.738-8.348,8.348-8.348h11.13C294.002,381.217,297.739,384.955,297.739,389.565z   M367.304,381.217c4.61,0,8.348,3.738,8.348,8.348c0,4.61-3.738,8.348-8.348,8.348h-44.522c-4.61,0-8.348-3.738-8.348-8.348  c0-4.61,3.738-8.348,8.348-8.348H367.304z"/>
<g>
</g>
<g>
</g>
<g>
</g>
<g>
</g>
<g>
</g>
<g>
</g>
<g>
</g>
<g>
</g>
<g>
</g>
<g>
</g>
<g>
</g>
<g>
</g>
<g>
</g>
<g>
</g>
<g>
</g>
</svg>
