<?xml version="1.0" encoding="iso-8859-1"?>
<!-- Generator: Adobe Illustrator 19.0.0, SVG Export Plug-In . SVG Version: 6.00 Build 0)  -->
<svg xmlns="http://www.w3.org/2000/svg" xmlns:xlink="http://www.w3.org/1999/xlink" version="1.1" id="Layer_1" x="0px" y="0px" viewBox="0 0 512 512" style="enable-background:new 0 0 512 512;" xml:space="preserve">
<path style="fill:#FFD34E;" d="M434.087,309.742v148.514c0,5.904-2.345,11.566-6.52,15.741l-31.481,31.481  c-4.175,4.175-9.837,6.52-15.741,6.52h-90.953v-28.781c0-2.952,1.173-5.783,3.26-7.87l38.002-38.002  c2.087-2.087,3.26-4.919,3.26-7.87v-51.041c0-24.588-19.934-44.522-44.522-44.522H256h-33.391  c-24.588,0-44.522,19.934-44.522,44.522v51.042c0,2.952,1.173,5.783,3.26,7.87l38.002,38.002c2.087,2.087,3.26,4.919,3.26,7.87V512  h-90.953c-5.904,0-11.566-2.345-15.741-6.52l-31.481-31.481c-4.175-4.175-6.52-9.837-6.52-15.741V309.742  c0-5.904,2.345-11.566,6.52-15.741l53.742-53.742c4.175-4.175,9.837-6.52,15.741-6.52H256h102.084c5.904,0,11.566,2.345,15.741,6.52  l53.742,53.742C431.742,298.177,434.087,303.839,434.087,309.742z M178.087,133.565h155.826c12.295,0,22.261-9.966,22.261-22.261  V22.261C356.174,9.966,346.208,0,333.913,0H178.087c-12.295,0-22.261,9.966-22.261,22.261v89.043  C155.826,123.599,165.792,133.565,178.087,133.565z"/>
<path style="fill:#FFB933;" d="M434.087,309.742v148.514c0,5.904-2.345,11.566-6.52,15.741l-31.481,31.481  c-4.175,4.175-9.837,6.52-15.741,6.52h-57.878l53.116-53.495c1.826-1.827,2.853-4.303,2.853-6.886V313.6  c0-2.583-1.026-5.06-2.853-6.886l-74.27-72.974h56.771c5.904,0,11.566,2.345,15.741,6.52l53.742,53.742  C431.742,298.177,434.087,303.839,434.087,309.742z M356.174,111.304V22.261C356.174,9.966,346.208,0,333.913,0h-44.522v133.565  h44.522C346.208,133.565,356.174,123.599,356.174,111.304z"/>
<path style="fill:#FF9600;" d="M166.957,311.652c0,12.295-9.966,22.261-22.261,22.261s-22.261-9.966-22.261-22.261  s9.966-22.261,22.261-22.261S166.957,299.357,166.957,311.652z M367.304,289.391c-12.295,0-22.261,9.966-22.261,22.261  s9.966,22.261,22.261,22.261c12.295,0,22.261-9.966,22.261-22.261S379.599,289.391,367.304,289.391z"/>
<path style="fill:#FFD34E;" d="M155.826,311.652c0,6.147-4.983,11.13-11.13,11.13c-6.147,0-11.13-4.983-11.13-11.13  s4.983-11.13,11.13-11.13C150.843,300.522,155.826,305.505,155.826,311.652z M367.304,300.522c-6.147,0-11.13,4.983-11.13,11.13  s4.983,11.13,11.13,11.13c6.147,0,11.13-4.983,11.13-11.13S373.452,300.522,367.304,300.522z"/>
<path style="fill:#FF6600;" d="M197.565,33.391v1.113c0,4.61-3.738,8.348-8.348,8.348c-4.61,0-8.348-3.738-8.348-8.348v-1.113  c0-4.61,3.738-8.348,8.348-8.348C193.828,25.043,197.565,28.781,197.565,33.391z M322.783,25.043c-4.61,0-8.348,3.738-8.348,8.348  v1.113c0,4.61,3.738,8.348,8.348,8.348s8.348-3.738,8.348-8.348v-1.113C331.13,28.781,327.393,25.043,322.783,25.043z"/>
<path style="fill:#BFBFBF;" d="M311.652,256v89.043c0,6.147-4.983,11.13-11.13,11.13h-89.043c-6.147,0-11.13-4.983-11.13-11.13V256  c0-6.147,4.983-11.13,11.13-11.13h89.043C306.669,244.87,311.652,249.853,311.652,256z"/>
<g>
	<path style="fill:#999999;" d="M311.652,256v89.043c0,6.147-6.229,11.13-13.913,11.13H256V244.87h41.739   C305.424,244.87,311.652,249.853,311.652,256z"/>
	<path style="fill:#999999;" d="M322.783,144.696V256c0,6.147-4.983,11.13-11.13,11.13H200.348c-6.147,0-11.13-4.983-11.13-11.13   V144.696c0-6.147,4.983-11.13,11.13-11.13h111.304C317.799,133.565,322.783,138.548,322.783,144.696z"/>
</g>
<path style="fill:#6D6D6D;" d="M322.783,144.696V256c0,6.147-4.983,11.13-11.13,11.13H256V133.565h55.652  C317.799,133.565,322.783,138.548,322.783,144.696z"/>
<path style="fill:#BFBFBF;" d="M328.348,139.13c0,39.956-32.392,72.348-72.348,72.348s-72.348-32.392-72.348-72.348  S216.044,66.783,256,66.783S328.348,99.174,328.348,139.13z"/>
<path style="fill:#6D6D6D;" d="M228.174,139.13c0-15.368,12.458-27.826,27.826-27.826s27.826,12.458,27.826,27.826  S271.368,166.957,256,166.957S228.174,154.498,228.174,139.13z M256,244.87c-15.368,0-27.826,12.458-27.826,27.826  s12.458,27.826,27.826,27.826s27.826-12.458,27.826-27.826S271.368,244.87,256,244.87z"/>
<path style="fill:#BFBFBF;" d="M244.87,139.13c0-6.147,4.983-11.13,11.13-11.13s11.13,4.983,11.13,11.13  c0,6.147-4.983,11.13-11.13,11.13S244.87,145.278,244.87,139.13z M256,261.565c-6.147,0-11.13,4.983-11.13,11.13  s4.983,11.13,11.13,11.13s11.13-4.983,11.13-11.13S262.147,261.565,256,261.565z"/>
<g>
</g>
<g>
</g>
<g>
</g>
<g>
</g>
<g>
</g>
<g>
</g>
<g>
</g>
<g>
</g>
<g>
</g>
<g>
</g>
<g>
</g>
<g>
</g>
<g>
</g>
<g>
</g>
<g>
</g>
</svg>
