<?xml version="1.0" encoding="iso-8859-1"?>
<!-- Generator: Adobe Illustrator 19.0.0, SVG Export Plug-In . SVG Version: 6.00 Build 0)  -->
<svg xmlns="http://www.w3.org/2000/svg" xmlns:xlink="http://www.w3.org/1999/xlink" version="1.1" id="Layer_1" x="0px" y="0px" viewBox="0 0 512 512" style="enable-background:new 0 0 512 512;" xml:space="preserve">
<path style="fill:#D9B166;" d="M478.609,144.696v37.287H33.391v-37.287L160.346,7.161C164.56,2.597,170.49,0,176.703,0h158.594  c6.213,0,12.143,2.597,16.357,7.161L478.609,144.696z"/>
<path style="fill:#BC8E50;" d="M478.609,144.696v37.287h-44.522v-37.287L307.132,7.161C302.918,2.597,296.988,0,290.775,0h44.522  c6.213,0,12.143,2.597,16.357,7.161L478.609,144.696z"/>
<path style="fill:#996633;" d="M300.522,41.739c0,4.61-3.738,8.348-8.348,8.348h-2.226c-4.61,0-8.348-3.738-8.348-8.348  s3.738-8.348,8.348-8.348h2.226C296.784,33.391,300.522,37.129,300.522,41.739z M247.652,33.391h-2.226  c-4.61,0-8.348,3.738-8.348,8.348s3.738,8.348,8.348,8.348h2.226c4.61,0,8.348-3.738,8.348-8.348S252.262,33.391,247.652,33.391z   M325.565,66.783h-2.226c-4.61,0-8.348,3.738-8.348,8.348s3.738,8.348,8.348,8.348h2.226c4.61,0,8.348-3.738,8.348-8.348  S330.175,66.783,325.565,66.783z"/>
<path style="fill:#687B40;" d="M512,155.826v33.391c0,6.147-4.983,11.13-11.13,11.13l-64.612,247.679  c-1.279,4.901-5.704,8.321-10.77,8.321H86.512c-5.065,0-9.491-3.419-10.77-8.321L11.13,200.348c-6.147,0-11.13-4.983-11.13-11.13  v-33.391c0-6.147,4.983-11.13,11.13-11.13h102.137c1.655,0,2.731,1.742,1.991,3.221l-3.955,7.909h100.174l0,0  c3.41-6.822,10.382-11.13,18.009-11.13h112.217c1.844,0,3.339,1.495,3.339,3.339v7.791h89.043l3.64-3.64  c4.796-4.796,11.302-7.491,18.085-7.491h45.058C507.017,144.696,512,149.679,512,155.826z"/>
<path style="fill:#57682E;" d="M512,155.826v33.391c0,6.147-4.983,11.13-11.13,11.13l-64.612,247.679  c-1.279,4.901-5.704,8.321-10.77,8.321h-44.522c5.065,0,9.491-3.42,10.77-8.321l60.976-233.739c1.84-7.052-3.482-13.94-10.77-13.94  H11.13c-6.147,0-11.13-4.983-11.13-11.13v-33.391c0-6.147,4.983-11.13,11.13-11.13h102.137c1.655,0,2.731,1.742,1.991,3.221  l-3.955,7.909h100.174l1.258-2.517c2.639-5.279,8.035-8.614,13.938-8.614h115.031c1.844,0,3.339,1.495,3.339,3.339v7.791h89.043  l5.262-5.262c3.758-3.758,8.853-5.868,14.167-5.868h2.832h44.522C507.017,144.696,512,149.679,512,155.826z"/>
<path style="fill:#FFD34E;" d="M113.53,144.696h113.53l-55.652,55.652h-26.713H57.878L113.53,144.696z M340.591,144.696  l-55.652,55.652h86.817h26.713l55.652-55.652H340.591z"/>
<path style="fill:#BFBFBF;" d="M228.174,450.783c0,33.81-27.408,61.217-61.217,61.217s-61.217-27.408-61.217-61.217  s27.408-61.217,61.217-61.217S228.174,416.973,228.174,450.783z M345.043,389.565c-33.81,0-61.217,27.408-61.217,61.217  S311.234,512,345.043,512s61.217-27.408,61.217-61.217S378.853,389.565,345.043,389.565z"/>
<path style="fill:#6D6D6D;" d="M189.217,450.783c0,12.295-9.966,22.261-22.261,22.261s-22.261-9.966-22.261-22.261  c0-12.295,9.966-22.261,22.261-22.261S189.217,438.488,189.217,450.783z M345.043,428.522c-12.295,0-22.261,9.966-22.261,22.261  c0,12.295,9.966,22.261,22.261,22.261c12.295,0,22.261-9.966,22.261-22.261C367.304,438.488,357.338,428.522,345.043,428.522z"/>
<g>
</g>
<g>
</g>
<g>
</g>
<g>
</g>
<g>
</g>
<g>
</g>
<g>
</g>
<g>
</g>
<g>
</g>
<g>
</g>
<g>
</g>
<g>
</g>
<g>
</g>
<g>
</g>
<g>
</g>
</svg>
