<?xml version="1.0" encoding="iso-8859-1"?>
<!-- Generator: Adobe Illustrator 19.0.0, SVG Export Plug-In . SVG Version: 6.00 Build 0)  -->
<svg xmlns="http://www.w3.org/2000/svg" xmlns:xlink="http://www.w3.org/1999/xlink" version="1.1" id="Layer_1" x="0px" y="0px" viewBox="0 0 512 512" style="enable-background:new 0 0 512 512;" xml:space="preserve">
<path style="fill:#CEDEEC;" d="M303.82,256h-39.961l19.928,105.981H93.212L113.139,256H39.374c-3.71,0-6.381-3.561-5.343-7.122  l17.175-58.93c0.692-2.375,2.869-4.008,5.343-4.008h69.763l11.941-63.505H79.048c-3.71,0-6.381-3.561-5.343-7.122l17.174-58.93  c0.692-2.375,2.869-4.008,5.343-4.008h55.204l8.995-47.837C160.916,1.906,163.213,0,165.89,0h45.217  c2.677,0,4.974,1.906,5.469,4.537l8.994,47.837h21.398c2.474,0,4.65,1.633,5.343,4.008l17.175,58.93  c1.038,3.562-1.633,7.122-5.343,7.122h-25.4l11.941,63.505h35.959c2.474,0,4.65,1.633,5.343,4.008l17.175,58.93  C310.201,252.439,307.529,256,303.82,256z"/>
<path style="fill:#ABC5FF;" d="M337.625,256H303.82c3.71,0,6.381-3.561,5.343-7.122l-17.175-58.93  c-0.692-2.375-2.869-4.008-5.343-4.008h33.805c2.474,0,4.65,1.633,5.343,4.008l17.175,58.93  C344.006,252.439,341.335,256,337.625,256z M252.314,56.382l17.175,58.93c1.038,3.562-1.633,7.122-5.343,7.122h33.805  c3.71,0,6.381-3.561,5.343-7.122l-17.175-58.93c-0.692-2.375-2.869-4.008-5.343-4.008h-33.805  C249.444,52.374,251.621,54.007,252.314,56.382z M211.108,0h-37.56c2.677,0,4.974,1.906,5.469,4.537l8.994,47.837h-36.586  l-13.173,70.061h62.934l11.941,63.505h-86.814L113.139,256H226.3l19.928,105.981h37.56L216.577,4.537  C216.083,1.906,213.786,0,211.108,0z"/>
<path style="fill:#BFBFBF;" d="M33.391,345.043l445.217-66.783V512H33.391V345.043z"/>
<path style="fill:#999999;" d="M445.217,283.27l33.391-5.009V512h-33.391V283.27z"/>
<path style="fill:#809DED;" d="M478.609,422.957V512h-89.043h-89.043v-89.043h89.043H478.609z"/>
<path style="fill:#5D7EAC;" d="M478.609,422.957V512h-33.391v-89.043H478.609z M356.174,512h33.391v-89.043h-33.391V512z"/>
<path style="fill:#999999;" d="M512,503.652c0,4.61-3.738,8.348-8.348,8.348H8.348C3.738,512,0,508.262,0,503.652  s3.738-8.348,8.348-8.348h495.304C508.262,495.304,512,499.042,512,503.652z"/>
<g>
</g>
<g>
</g>
<g>
</g>
<g>
</g>
<g>
</g>
<g>
</g>
<g>
</g>
<g>
</g>
<g>
</g>
<g>
</g>
<g>
</g>
<g>
</g>
<g>
</g>
<g>
</g>
<g>
</g>
</svg>
