<?xml version="1.0" encoding="iso-8859-1"?>
<!-- Generator: Adobe Illustrator 19.0.0, SVG Export Plug-In . SVG Version: 6.00 Build 0)  -->
<svg xmlns="http://www.w3.org/2000/svg" xmlns:xlink="http://www.w3.org/1999/xlink" version="1.1" id="Layer_1" x="0px" y="0px" viewBox="0 0 512 512" style="enable-background:new 0 0 512 512;" xml:space="preserve">
<path style="fill:#999999;" d="M300.522,22.261v11.13v22.261h-89.043V33.391v-11.13C211.478,9.966,221.444,0,233.739,0h44.522  C290.556,0,300.522,9.966,300.522,22.261z"/>
<g>
	<path style="fill:#6D6D6D;" d="M300.522,22.261v11.13v22.261H267.13V33.391v-11.13C267.13,9.966,257.164,0,244.87,0h33.391   C290.556,0,300.522,9.966,300.522,22.261z"/>
	<path style="fill:#6D6D6D;" d="M375.652,425.739c0,4.61-3.738,8.348-8.348,8.348H144.696c-4.61,0-8.348-3.738-8.348-8.348   s3.738-8.348,8.348-8.348h222.609C371.915,417.391,375.652,421.129,375.652,425.739z"/>
</g>
<path style="fill:#999999;" d="M153.043,381.217v122.435c0,4.61-3.738,8.348-8.348,8.348c-4.61,0-8.348-3.738-8.348-8.348V381.217  c0-4.61,3.738-8.348,8.348-8.348C149.306,372.87,153.043,376.607,153.043,381.217z M367.304,372.87c-4.61,0-8.348,3.738-8.348,8.348  v122.435c0,4.61,3.738,8.348,8.348,8.348c4.61,0,8.348-3.738,8.348-8.348V381.217C375.652,376.607,371.915,372.87,367.304,372.87z"/>
<path style="fill:#6D6D6D;" d="M420.174,503.652c0,4.61-3.738,8.348-8.348,8.348H100.174c-4.61,0-8.348-3.738-8.348-8.348  s3.738-8.348,8.348-8.348h311.652C416.436,495.304,420.174,499.042,420.174,503.652z"/>
<path style="fill:#E2E2E2;" d="M500.87,389.565H11.13c-6.147,0-11.13-4.983-11.13-11.13V44.522c0-6.147,4.983-11.13,11.13-11.13  H500.87c6.147,0,11.13,4.983,11.13,11.13v333.913C512,384.582,507.017,389.565,500.87,389.565z"/>
<path style="fill:#BFBFBF;" d="M512,44.522v333.913c0,6.147-4.983,11.13-11.13,11.13h-22.261V33.391h22.261  C507.017,33.391,512,38.374,512,44.522z"/>
<path style="fill:#5D7EAC;" d="M256,204.94v13.077c0,4.582-3.235,8.527-7.728,9.426l-23.968,4.794  c-1.668,5.964-4.034,11.634-7.01,16.917l13.56,20.341c2.542,3.812,2.039,8.889-1.201,12.129l-9.247,9.247  c-3.24,3.24-8.317,3.743-12.129,1.201l-20.341-13.56c-5.284,2.976-10.953,5.341-16.917,7.01l-4.794,23.968  c-0.898,4.493-4.844,7.728-9.426,7.728h-13.077c-4.582,0-8.527-3.235-9.426-7.728l-4.794-23.968  c-5.964-1.668-11.634-4.034-16.917-7.01l-20.341,13.56c-3.812,2.542-8.889,2.039-12.129-1.201l-9.247-9.247  c-3.24-3.24-3.743-8.317-1.201-12.129l13.56-20.341c-2.976-5.284-5.341-10.953-7.01-16.917l-23.968-4.794  c-4.493-0.898-7.728-4.844-7.728-9.426V204.94c0-4.582,3.235-8.527,7.728-9.426l23.968-4.794c1.668-5.964,4.034-11.634,7.01-16.917  l-13.56-20.341c-2.542-3.812-2.039-8.889,1.201-12.129l9.247-9.247c3.24-3.24,8.317-3.743,12.129-1.201l20.341,13.56  c5.284-2.976,10.953-5.341,16.917-7.01l4.794-23.968c0.898-4.493,4.844-7.728,9.426-7.728h13.077c4.582,0,8.527,3.235,9.426,7.728  l4.794,23.968c5.964,1.668,11.634,4.034,16.917,7.01l20.341-13.56c3.812-2.542,8.889-2.039,12.129,1.201l9.247,9.247  c3.24,3.24,3.743,8.317,1.201,12.129l-13.56,20.341c2.976,5.284,5.341,10.953,7.01,16.917l23.968,4.794  C252.765,196.412,256,200.358,256,204.94z"/>
<path style="fill:#ABC5FF;" d="M204.243,211.478c0,29.814-24.169,53.983-53.983,53.983s-53.983-24.169-53.983-53.983  s24.169-53.983,53.983-53.983S204.243,181.664,204.243,211.478z"/>
<path style="fill:#5D7EAC;" d="M181.983,211.478c0,17.519-14.202,31.722-31.722,31.722s-31.722-14.202-31.722-31.722  s14.202-31.722,31.722-31.722S181.983,193.959,181.983,211.478z"/>
<path style="fill:#809DED;" d="M163.617,211.478c0,14.326-9.499,26.428-22.539,30.367c-13.04-3.938-22.539-16.041-22.539-30.367  c0-14.326,9.499-26.428,22.539-30.367C154.119,185.05,163.617,197.152,163.617,211.478z"/>
<path style="fill:#6D6D6D;" d="M411.826,200.348v22.261c0,6.147-4.983,11.13-11.13,11.13h-89.043v-44.522h89.043  C406.843,189.217,411.826,194.2,411.826,200.348z"/>
<path style="fill:#999999;" d="M378.435,233.739h-66.783v-44.522h66.783c6.147,0,11.13,4.983,11.13,11.13v22.261  C389.565,228.756,384.582,233.739,378.435,233.739z"/>
<path style="fill:#5D7EAC;" d="M356.174,155.826h-44.522v-44.522h44.522c6.147,0,11.13,4.983,11.13,11.13v22.261  C367.304,150.843,362.321,155.826,356.174,155.826z M456.348,267.13H311.652v44.522h144.696c6.147,0,11.13-4.983,11.13-11.13  v-22.261C467.478,272.114,462.495,267.13,456.348,267.13z"/>
<path style="fill:#809DED;" d="M333.913,155.826h-22.261v-44.522h22.261c6.147,0,11.13,4.983,11.13,11.13v22.261  C345.043,150.843,340.06,155.826,333.913,155.826z M434.087,267.13H311.652v44.522h122.435c6.147,0,11.13-4.983,11.13-11.13v-22.261  C445.217,272.114,440.234,267.13,434.087,267.13z"/>
<path style="fill:#BFBFBF;" d="M320,77.913v267.13c0,4.61-3.738,8.348-8.348,8.348s-8.348-3.738-8.348-8.348V77.913  c0-4.61,3.738-8.348,8.348-8.348S320,73.303,320,77.913z"/>
<g>
</g>
<g>
</g>
<g>
</g>
<g>
</g>
<g>
</g>
<g>
</g>
<g>
</g>
<g>
</g>
<g>
</g>
<g>
</g>
<g>
</g>
<g>
</g>
<g>
</g>
<g>
</g>
<g>
</g>
</svg>
