<?xml version="1.0" encoding="iso-8859-1"?>
<!-- Generator: Adobe Illustrator 19.0.0, SVG Export Plug-In . SVG Version: 6.00 Build 0)  -->
<svg xmlns="http://www.w3.org/2000/svg" xmlns:xlink="http://www.w3.org/1999/xlink" version="1.1" id="Layer_1" x="0px" y="0px" viewBox="0 0 512 512" style="enable-background:new 0 0 512 512;" xml:space="preserve">
<path style="fill:#999999;" d="M489.739,450.783H89.043c-12.295,0-22.261-9.966-22.261-22.261V150.261  c0-12.295,9.966-22.261,22.261-22.261h400.696c12.295,0,22.261,9.966,22.261,22.261v278.261  C512,440.816,502.034,450.783,489.739,450.783z"/>
<path style="fill:#BFBFBF;" d="M422.957,384H22.261C9.966,384,0,374.034,0,361.739V83.478c0-12.295,9.966-22.261,22.261-22.261  h400.696c12.295,0,22.261,9.966,22.261,22.261v278.261C445.217,374.034,435.251,384,422.957,384z"/>
<path style="fill:#E2E2E2;" d="M333.913,384H22.261C9.966,384,0,374.034,0,361.739V83.478c0-12.295,9.966-22.261,22.261-22.261  h400.696c12.295,0,22.261,9.966,22.261,22.261v189.217L333.913,384z"/>
<path style="fill:#BFBFBF;" d="M378.435,328.348H55.652V116.87h322.783V328.348z"/>
<path style="fill:#FFD34E;" d="M89.043,228.174h44.522v100.174H77.913v-89.043C77.913,233.157,82.896,228.174,89.043,228.174z   M222.609,250.435c-6.147,0-11.13,4.983-11.13,11.13v66.783H256v-77.913H222.609z"/>
<path style="fill:#FFB933;" d="M100.174,228.174h33.391v100.174h-33.391V228.174z M233.739,250.435v77.913h33.391v-77.913H233.739z"/>
<path style="fill:#809DED;" d="M166.957,172.522v155.826h-44.522V172.522c0-6.147,4.983-11.13,11.13-11.13h22.261  C161.973,161.391,166.957,166.374,166.957,172.522z M289.391,139.13H267.13c-6.147,0-11.13,4.983-11.13,11.13v178.087h44.522  V150.261C300.522,144.114,295.539,139.13,289.391,139.13z"/>
<path style="fill:#5D7EAC;" d="M166.957,172.522v155.826h-22.261V161.391h11.13C161.973,161.391,166.957,166.374,166.957,172.522z   M289.391,139.13h-11.13v194.783h22.261V150.261C300.522,144.114,295.539,139.13,289.391,139.13z"/>
<path style="fill:#6D6D6D;" d="M375.652,328.348c0,4.61-3.738,8.348-8.348,8.348H55.652c-4.61,0-8.348-3.738-8.348-8.348  S51.042,320,55.652,320h311.652C371.915,320,375.652,323.738,375.652,328.348z"/>
<path style="fill:#FFFFFF;" d="M333.913,384v-89.043c0-12.295,9.966-22.261,22.261-22.261h89.043L333.913,384z"/>
<g>
</g>
<g>
</g>
<g>
</g>
<g>
</g>
<g>
</g>
<g>
</g>
<g>
</g>
<g>
</g>
<g>
</g>
<g>
</g>
<g>
</g>
<g>
</g>
<g>
</g>
<g>
</g>
<g>
</g>
</svg>
