<?xml version="1.0" encoding="iso-8859-1"?>
<!-- Generator: Adobe Illustrator 19.0.0, SVG Export Plug-In . SVG Version: 6.00 Build 0)  -->
<svg xmlns="http://www.w3.org/2000/svg" xmlns:xlink="http://www.w3.org/1999/xlink" version="1.1" id="Layer_1" x="0px" y="0px" viewBox="0 0 512 512" style="enable-background:new 0 0 512 512;" xml:space="preserve">
<path style="fill:#BFBFBF;" d="M289.391,456.348h-66.783V300.522h66.783V456.348z"/>
<g>
	<path style="fill:#999999;" d="M289.391,456.348H267.13V300.522h22.261V456.348z"/>
	<path style="fill:#999999;" d="M389.565,467.478v33.391c0,6.147-4.983,11.13-11.13,11.13h-244.87c-6.147,0-11.13-4.983-11.13-11.13   v-33.391c0-6.147,4.983-11.13,11.13-11.13h55.652v-33.391c0-6.147,4.983-11.13,11.13-11.13h111.304   c6.147,0,11.13,4.983,11.13,11.13v33.391h55.652C384.582,456.348,389.565,461.331,389.565,467.478z"/>
</g>
<path style="fill:#6D6D6D;" d="M389.565,467.478v33.391c0,6.147-4.983,11.13-11.13,11.13h-44.522v-22.261  c0-12.295-9.966-22.261-22.261-22.261H122.435c0-6.147,4.983-11.13,11.13-11.13h55.652v-22.261H256c6.147,0,11.13-4.983,11.13-11.13  v-11.13h44.522c6.147,0,11.13,4.983,11.13,11.13v33.391h11.13h22.261h22.261C384.582,456.348,389.565,461.331,389.565,467.478z"/>
<path style="fill:#809DED;" d="M439.652,183.652c0,101.428-82.224,183.652-183.652,183.652S72.348,285.08,72.348,183.652  S154.572,0,256,0S439.652,82.224,439.652,183.652z"/>
<path style="fill:#5D7EAC;" d="M439.652,183.652c0,101.428-82.224,183.652-183.652,183.652c-6.58,0-13.077-0.354-19.478-1.028  c92.27-9.728,164.174-87.776,164.174-182.624S328.792,10.756,236.522,1.028C242.923,0.354,249.42,0,256,0  C357.428,0,439.652,82.224,439.652,183.652z"/>
<path style="fill:#CEDEEC;" d="M400.696,183.652c0,79.913-64.782,144.696-144.696,144.696s-144.696-64.782-144.696-144.696  S176.087,38.957,256,38.957S400.696,103.739,400.696,183.652z"/>
<path style="fill:#FFFFFF;" d="M400.696,183.652c0,79.913-64.782,144.696-144.696,144.696c-6.607,0-13.107-0.452-19.478-1.309  c70.701-9.514,125.217-70.079,125.217-143.387c0-66.415-44.749-122.371-105.739-139.381v-5.315  C335.913,38.957,400.696,103.739,400.696,183.652z"/>
<path style="fill:#8BAD67;" d="M150.407,189.217c-0.096-1.843-0.146-3.699-0.146-5.565c0-58.398,47.341-105.739,105.739-105.739  s105.739,47.341,105.739,105.739c0,1.867-0.05,3.722-0.146,5.565H150.407z"/>
<path style="fill:#FF6600;" d="M361.739,183.652c0,1.867-0.05,3.722-0.146,5.565H256V77.913  C314.398,77.913,361.739,125.254,361.739,183.652z"/>
<path style="fill:#FFD34E;" d="M268.316,33.328l15.51,144.759h-55.652l15.51-144.759c0.675-6.294,5.986-11.067,12.316-11.067l0,0  C262.33,22.261,267.641,27.034,268.316,33.328z"/>
<path style="fill:#809DED;" d="M289.391,183.652c0,18.442-14.949,33.391-33.391,33.391s-33.391-14.949-33.391-33.391  s14.949-33.391,33.391-33.391S289.391,165.21,289.391,183.652z"/>
<g>
</g>
<g>
</g>
<g>
</g>
<g>
</g>
<g>
</g>
<g>
</g>
<g>
</g>
<g>
</g>
<g>
</g>
<g>
</g>
<g>
</g>
<g>
</g>
<g>
</g>
<g>
</g>
<g>
</g>
</svg>
