<?xml version="1.0" encoding="iso-8859-1"?>
<!-- Generator: Adobe Illustrator 19.0.0, SVG Export Plug-In . SVG Version: 6.00 Build 0)  -->
<svg xmlns="http://www.w3.org/2000/svg" xmlns:xlink="http://www.w3.org/1999/xlink" version="1.1" id="Layer_1" x="0px" y="0px" viewBox="0 0 512 512" style="enable-background:new 0 0 512 512;" xml:space="preserve">
<path style="fill:#999999;" d="M438.539,36.174H114.387c-15.368,0-28.567,8.82-34.449,23.018  c-5.881,14.198-2.784,29.768,8.083,40.635l324.152,324.152c7.226,7.226,16.53,11.016,26.129,11.016  c4.836,0,9.749-0.963,14.506-2.933c14.198-5.881,23.018-19.081,23.018-34.449V73.461C475.826,52.901,459.099,36.174,438.539,36.174z   M459.13,397.613c0,10.144-6.566,16.479-12.711,19.024c-6.144,2.546-15.267,2.709-22.44-4.463L99.827,88.022  c-7.172-7.174-7.009-16.295-4.463-22.44c2.546-6.145,8.88-12.711,19.024-12.711h324.152c11.354,0,20.591,9.237,20.591,20.591  V397.613z"/>
<path style="fill:#CEDEEC;" d="M440.589,189.217v89.043c0,4.61-3.738,8.348-8.348,8.348s-8.348-3.738-8.348-8.348v-89.043  c0-4.61,3.738-8.348,8.348-8.348S440.589,184.607,440.589,189.217z M332.068,0h-55.652c-4.61,0-8.348,3.738-8.348,8.348  s3.738,8.348,8.348,8.348h55.652c4.61,0,8.348-3.738,8.348-8.348S336.678,0,332.068,0z"/>
<path style="fill:#E2E2E2;" d="M445.217,133.565c-36.883,0-66.783-29.9-66.783-66.783S408.334,0,445.217,0S512,29.9,512,66.783  S482.1,133.565,445.217,133.565z"/>
<path style="fill:#6D6D6D;" d="M445.217,89.043c-12.295,0-22.261-9.966-22.261-22.261s9.966-22.261,22.261-22.261  c12.295,0,22.261,9.966,22.261,22.261S457.512,89.043,445.217,89.043z"/>
<path style="fill:#5D7EAC;" d="M0,161.391C0,72.258,72.258,0,161.391,0s161.391,72.258,161.391,161.391  s-72.258,161.391-161.391,161.391S0,250.525,0,161.391z"/>
<path style="fill:#ABC5FF;" d="M161.391,278.261c-64.545,0-116.87-52.324-116.87-116.87s52.324-116.87,116.87-116.87  s116.87,52.324,116.87,116.87S225.937,278.261,161.391,278.261z"/>
<path style="fill:#CEDEEC;" d="M44.522,161.391h116.87v116.87C96.846,278.261,44.522,225.937,44.522,161.391z M161.391,44.522  v116.87h116.87C278.261,96.846,225.937,44.522,161.391,44.522z"/>
<path style="fill:#344966;" d="M122.435,161.391c0-21.515,17.441-38.957,38.957-38.957s38.957,17.441,38.957,38.957  s-17.441,38.957-38.957,38.957S122.435,182.906,122.435,161.391z"/>
<path style="fill:#233043;" d="M200.348,161.391c0,21.515-17.441,38.957-38.957,38.957c-3.869,0-7.603-0.572-11.13-1.623  c16.09-4.791,27.826-19.688,27.826-37.334s-11.736-32.544-27.826-37.334c3.527-1.051,7.261-1.623,11.13-1.623  C182.906,122.435,200.348,139.876,200.348,161.391z"/>
<path style="fill:#FFB933;" d="M512,417.391C512,469.642,469.642,512,417.391,512s-94.609-42.358-94.609-94.609  s42.358-94.609,94.609-94.609S512,365.141,512,417.391z"/>
<path style="fill:#FFD34E;" d="M467.478,417.391c0,27.662-22.424,50.087-50.087,50.087c-27.662,0-50.087-22.424-50.087-50.087  c0-27.662,22.424-50.087,50.087-50.087C445.054,367.304,467.478,389.729,467.478,417.391z"/>
<path style="fill:#FF9600;" d="M367.304,417.391h100.174c0,27.662-22.424,50.087-50.087,50.087  C389.729,467.478,367.304,445.054,367.304,417.391z"/>
<g>
</g>
<g>
</g>
<g>
</g>
<g>
</g>
<g>
</g>
<g>
</g>
<g>
</g>
<g>
</g>
<g>
</g>
<g>
</g>
<g>
</g>
<g>
</g>
<g>
</g>
<g>
</g>
<g>
</g>
</svg>
