<?xml version="1.0" encoding="iso-8859-1"?>
<!-- Generator: Adobe Illustrator 19.0.0, SVG Export Plug-In . SVG Version: 6.00 Build 0)  -->
<svg xmlns="http://www.w3.org/2000/svg" xmlns:xlink="http://www.w3.org/1999/xlink" version="1.1" id="Layer_1" x="0px" y="0px" viewBox="0 0 512 512" style="enable-background:new 0 0 512 512;" xml:space="preserve">
<path style="fill:#809DED;" d="M244.87,512H44.522C19.933,512,0,492.066,0,467.478V89.043h289.391v378.435  C289.391,492.066,269.458,512,244.87,512z"/>
<path style="fill:#5D7EAC;" d="M153.043,456.348c0,4.61-3.738,8.348-8.348,8.348h-25.043V512h-16.696v-47.304H64V512H47.304v-47.304  H0V448h47.304v-69.565c0-4.61,3.738-8.348,8.348-8.348S64,373.825,64,378.435V448h38.957v-25.043c0-4.61,3.738-8.348,8.348-8.348  s8.348,3.738,8.348,8.348V448h25.043C149.306,448,153.043,451.738,153.043,456.348z"/>
<path style="fill:#344966;" d="M512,122.435L512,122.435v333.913H389.565h-33.391h-77.913V89.043h77.913h33.391h89.043  C503.026,89.043,509.584,111.675,512,122.435z"/>
<path style="fill:#809DED;" d="M512,122.435v356.174l0,0C512,497.05,497.051,512,478.609,512h-89.043v-33.391v-33.391V155.826  h89.043C497.051,155.826,512,140.876,512,122.435z"/>
<path style="fill:#5D7EAC;" d="M512,122.435v356.174C512,497.05,497.05,512,478.609,512V144.696L512,122.435z"/>
<path style="fill:#233043;" d="M512,122.435L512,122.435c0,18.441-14.95,33.391-33.391,33.391h-33.391  c18.441,0,33.391-14.95,33.391-33.391l0,0c0-18.441-14.95-33.391-33.391-33.391h33.391C497.05,89.043,512,103.994,512,122.435z"/>
<path style="fill:#5D7EAC;" d="M289.391,89.043v378.435c0,24.588-19.934,44.522-44.522,44.522h-33.391  C236.066,512,256,492.066,256,467.478V89.043H289.391z"/>
<path style="fill:#ABC5FF;" d="M244.87,133.565H44.522C19.933,133.565,0,113.632,0,89.043l0,0c0-24.588,19.933-44.522,44.522-44.522  H244.87c24.588,0,44.522,19.933,44.522,44.522l0,0C289.391,113.632,269.458,133.565,244.87,133.565z"/>
<path style="fill:#344966;" d="M108.561,89.043c0,4.61-3.739,8.348-8.351,8.348H50.087c-4.696,0-8.486-3.877-8.343-8.605  c0.137-4.568,4.124-8.091,8.696-8.091h49.77C104.822,80.696,108.561,84.433,108.561,89.043z M238.952,80.696h-49.667  c-4.612,0-8.351,3.738-8.351,8.348c0,4.61,3.739,8.348,8.351,8.348h50.02c4.696,0,8.486-3.877,8.343-8.605  C247.511,84.218,243.524,80.696,238.952,80.696z"/>
<path style="fill:#B2A994;" d="M189.217,22.261v75.13h-89.043v-75.13C100.174,9.966,110.14,0,122.435,0h44.522  C179.251,0,189.217,9.966,189.217,22.261z"/>
<path style="fill:#847E74;" d="M189.217,22.261v75.13h-33.391v-75.13C155.826,9.966,145.86,0,133.565,0h33.391  C179.251,0,189.217,9.966,189.217,22.261z"/>
<g>
</g>
<g>
</g>
<g>
</g>
<g>
</g>
<g>
</g>
<g>
</g>
<g>
</g>
<g>
</g>
<g>
</g>
<g>
</g>
<g>
</g>
<g>
</g>
<g>
</g>
<g>
</g>
<g>
</g>
</svg>
