<?xml version="1.0" encoding="iso-8859-1"?>
<!-- Generator: Adobe Illustrator 19.0.0, SVG Export Plug-In . SVG Version: 6.00 Build 0)  -->
<svg xmlns="http://www.w3.org/2000/svg" xmlns:xlink="http://www.w3.org/1999/xlink" version="1.1" id="Layer_1" x="0px" y="0px" viewBox="0 0 512 512" style="enable-background:new 0 0 512 512;" xml:space="preserve">
<path style="fill:#BFBFBF;" d="M400.696,512H22.261V77.913l378.435,77.913V512z"/>
<path style="fill:#999999;" d="M400.696,155.826V512h-33.391V148.952L400.696,155.826z"/>
<path style="fill:#5D7EAC;" d="M322.783,104.421v13.765c0,4.823-3.405,8.977-8.134,9.922l-25.23,5.047  c-1.756,6.278-4.246,12.246-7.378,17.808l14.274,21.411c2.676,4.014,2.146,9.357-1.264,12.768l-9.734,9.734  c-3.41,3.41-8.754,3.94-12.768,1.264l-21.411-14.274c-5.562,3.133-11.53,5.622-17.808,7.378l-5.047,25.23  c-0.946,4.729-5.099,8.134-9.922,8.134h-13.765c-4.823,0-8.977-3.405-9.922-8.134l-5.047-25.23  c-6.278-1.756-12.246-4.246-17.808-7.378l-21.41,14.274c-4.014,2.676-9.357,2.146-12.768-1.264l-9.734-9.734  c-3.41-3.41-3.94-8.754-1.264-12.768l14.274-21.41c-3.133-5.562-5.622-11.53-7.378-17.808l-25.23-5.047  c-4.729-0.946-8.134-5.099-8.134-9.922v-13.765c0-4.823,3.405-8.976,8.134-9.922l25.23-5.047c1.756-6.278,4.246-12.246,7.378-17.808  l-14.274-21.41c-2.676-4.014-2.146-9.357,1.264-12.768l9.734-9.734c3.41-3.41,8.754-3.94,12.768-1.264l21.41,14.274  c5.562-3.133,11.53-5.622,17.808-7.378l5.047-25.23C195.62,3.405,199.772,0,204.595,0h13.765c4.823,0,8.977,3.405,9.922,8.134  l5.047,25.23c6.278,1.756,12.246,4.246,17.808,7.378l21.411-14.274c4.014-2.676,9.357-2.146,12.768,1.264l9.734,9.734  c3.41,3.41,3.94,8.754,1.264,12.768l-14.274,21.411c3.133,5.562,5.622,11.53,7.378,17.808l25.23,5.047  C319.378,95.446,322.783,99.598,322.783,104.421z"/>
<path style="fill:#ABC5FF;" d="M267.13,111.304c0,30.736-24.917,55.652-55.652,55.652s-55.652-24.917-55.652-55.652  s24.917-55.652,55.652-55.652S267.13,80.569,267.13,111.304z"/>
<path style="fill:#5D7EAC;" d="M244.87,111.304c0,18.442-14.949,33.391-33.391,33.391s-33.391-14.949-33.391-33.391  s14.949-33.391,33.391-33.391S244.87,92.862,244.87,111.304z"/>
<path style="fill:#809DED;" d="M222.609,111.304c0,14.537-9.293,26.899-22.261,31.484c-12.968-4.585-22.261-16.946-22.261-31.484  s9.293-26.899,22.261-31.484C213.316,84.405,222.609,96.767,222.609,111.304z"/>
<path style="fill:#E2E2E2;" d="M155.826,300.522h333.913V512H155.826V300.522z"/>
<path style="fill:#BFBFBF;" d="M456.348,300.522h33.391V512h-33.391V300.522z"/>
<path style="fill:#5D7EAC;" d="M489.739,356.174v77.913h-77.913h-77.913H256v-77.913h77.913h77.913H489.739z"/>
<path style="fill:#809DED;" d="M256,356.174h44.522v77.913H256V356.174z M333.913,434.087h44.522v-77.913h-44.522V434.087z   M411.826,356.174v77.913h44.522v-77.913H411.826z"/>
<path style="fill:#999999;" d="M512,503.652c0,4.61-3.738,8.348-8.348,8.348H8.348C3.738,512,0,508.262,0,503.652  s3.738-8.348,8.348-8.348h495.304C508.262,495.304,512,499.042,512,503.652z"/>
<path style="fill:#8BAD67;" d="M185.816,407.844l14.166,77.913C202.466,499.421,191.969,512,178.08,512h-35.696  c-13.889,0-24.387-12.578-21.901-26.243l14.166-77.913c1.924-10.585,11.144-18.278,21.901-18.278h7.365  C174.673,389.565,183.891,397.259,185.816,407.844z"/>
<path style="fill:#687B40;" d="M178.08,512H154.09c16.414,0,28.82-14.866,25.884-31.015l-16.622-91.42h0.563  c10.759,0,19.977,7.693,21.901,18.278l14.166,77.913C202.467,499.421,191.969,512,178.08,512z"/>
<g>
</g>
<g>
</g>
<g>
</g>
<g>
</g>
<g>
</g>
<g>
</g>
<g>
</g>
<g>
</g>
<g>
</g>
<g>
</g>
<g>
</g>
<g>
</g>
<g>
</g>
<g>
</g>
<g>
</g>
</svg>
