<?xml version="1.0" encoding="iso-8859-1"?>
<!-- Generator: Adobe Illustrator 19.0.0, SVG Export Plug-In . SVG Version: 6.00 Build 0)  -->
<svg xmlns="http://www.w3.org/2000/svg" xmlns:xlink="http://www.w3.org/1999/xlink" version="1.1" id="Layer_1" x="0px" y="0px" viewBox="0 0 512 512" style="enable-background:new 0 0 512 512;" xml:space="preserve">
<path style="fill:#999999;" d="M450.783,512H61.217C27.408,512,0,484.592,0,450.783l0,0c0-33.81,27.408-61.217,61.217-61.217  h389.565c33.81,0,61.217,27.408,61.217,61.217l0,0C512,484.592,484.592,512,450.783,512z"/>
<path style="fill:#444444;" d="M512,450.783L512,450.783C512,484.591,484.592,512,450.783,512h-44.522  c24.704,0,45.974-14.641,55.649-35.711c-3.408,1.488-7.17,2.32-11.127,2.32H61.217c-15.368,0-27.826-12.458-27.826-27.826l0,0  c0-15.368,12.458-27.826,27.826-27.826h389.565c3.957,0,7.719,0.831,11.127,2.32c-9.675-21.07-30.945-35.711-55.649-35.711h44.522  C484.592,389.565,512,416.974,512,450.783z"/>
<path style="fill:#BFBFBF;" d="M89.043,450.783c0,15.368-12.458,27.826-27.826,27.826s-27.826-12.458-27.826-27.826  s12.458-27.826,27.826-27.826S89.043,435.415,89.043,450.783z M450.783,422.957c-15.368,0-27.826,12.458-27.826,27.826  s12.458,27.826,27.826,27.826s27.826-12.458,27.826-27.826S466.15,422.957,450.783,422.957z M256,422.957  c-15.368,0-27.826,12.458-27.826,27.826s12.458,27.826,27.826,27.826s27.826-12.458,27.826-27.826S271.368,422.957,256,422.957z"/>
<path style="fill:#444444;" d="M267.13,450.783c0,6.147-4.983,11.13-11.13,11.13s-11.13-4.983-11.13-11.13  c0-6.147,4.983-11.13,11.13-11.13S267.13,444.635,267.13,450.783z M61.217,439.652c-6.147,0-11.13,4.983-11.13,11.13  c0,6.147,4.983,11.13,11.13,11.13s11.13-4.983,11.13-11.13C72.348,444.635,67.365,439.652,61.217,439.652z M450.783,439.652  c-6.147,0-11.13,4.983-11.13,11.13c0,6.147,4.983,11.13,11.13,11.13c6.147,0,11.13-4.983,11.13-11.13  C461.913,444.635,456.93,439.652,450.783,439.652z"/>
<path style="fill:#809DED;" d="M155.826,267.13v66.783c0,6.147-4.983,11.13-11.13,11.13H77.913c-6.147,0-11.13-4.983-11.13-11.13  V267.13c0-6.147,4.983-11.13,11.13-11.13h66.783C150.843,256,155.826,260.983,155.826,267.13z M222.609,166.957  c-6.147,0-11.13,4.983-11.13,11.13v155.826c0,6.147,4.983,11.13,11.13,11.13h44.522V166.957H222.609z"/>
<path style="fill:#ABC5FF;" d="M122.435,345.043H77.913c-6.147,0-11.13-4.983-11.13-11.13V267.13c0-6.147,4.983-11.13,11.13-11.13  h44.522V345.043z"/>
<path style="fill:#344966;" d="M445.217,11.13v322.783c0,6.147-4.983,11.13-11.13,11.13h-66.783c-6.147,0-11.13-4.983-11.13-11.13  V11.13c0-6.147,4.983-11.13,11.13-11.13h66.783C440.234,0,445.217,4.983,445.217,11.13z"/>
<path style="fill:#5D7EAC;" d="M300.522,178.087v155.826c0,6.147-4.983,11.13-11.13,11.13h-66.783c-6.147,0-11.13-4.983-11.13-11.13  V178.087c0-6.147,4.983-11.13,11.13-11.13h66.783C295.539,166.957,300.522,171.94,300.522,178.087z M367.304,0  c-6.147,0-11.13,4.983-11.13,11.13v322.783c0,6.147,4.983,11.13,11.13,11.13h44.522V0H367.304z"/>
<g>
</g>
<g>
</g>
<g>
</g>
<g>
</g>
<g>
</g>
<g>
</g>
<g>
</g>
<g>
</g>
<g>
</g>
<g>
</g>
<g>
</g>
<g>
</g>
<g>
</g>
<g>
</g>
<g>
</g>
</svg>
