<?xml version="1.0" encoding="iso-8859-1"?>
<!-- Generator: Adobe Illustrator 19.0.0, SVG Export Plug-In . SVG Version: 6.00 Build 0)  -->
<svg xmlns="http://www.w3.org/2000/svg" xmlns:xlink="http://www.w3.org/1999/xlink" version="1.1" id="Layer_1" x="0px" y="0px" viewBox="0 0 512 512" style="enable-background:new 0 0 512 512;" xml:space="preserve">
<path style="fill:#BC8E50;" d="M445.217,55.652v434.087c0,12.295-9.966,22.261-22.261,22.261H22.261C9.966,512,0,502.034,0,489.739  V55.652c0-12.295,9.966-22.261,22.261-22.261h33.391c6.147,0,11.13,4.983,11.13,11.13v22.261h311.652V44.522  c0-6.147,4.983-11.13,11.13-11.13h33.391C435.251,33.391,445.217,43.357,445.217,55.652z"/>
<path style="fill:#996633;" d="M445.217,55.652v434.087c0,12.295-9.966,22.261-22.261,22.261h-33.391  c12.295,0,22.261-9.966,22.261-22.261V55.652c0-12.295-9.966-22.261-22.261-22.261h33.391  C435.251,33.391,445.217,43.357,445.217,55.652z"/>
<path style="fill:#FCFCFC;" d="M378.435,400.696c6.147,0,11.13,4.983,11.13,11.13v33.391c0,6.147-4.983,11.13-11.13,11.13h-44.522  h-33.391H66.783c-6.147,0-11.13-4.983-11.13-11.13v-33.391c0-6.147,4.983-11.13,11.13-11.13l0,0V211.478l0,0  c-6.147,0-11.13-4.983-11.13-11.13V33.391h77.913h178.087h77.913v166.957c0,6.147-4.983,11.13-11.13,11.13l0,0V400.696  L378.435,400.696z"/>
<path style="fill:#809DED;" d="M272.952,55.652H172.266c-7.875,0-13.259-7.953-10.335-15.264l13.357-33.391  C176.978,2.771,181.071,0,185.622,0h73.972c4.551,0,8.644,2.771,10.335,6.997l13.357,33.391  C286.21,47.699,280.825,55.652,272.952,55.652z"/>
<path style="fill:#5D7EAC;" d="M272.952,55.652h-27.559c7.875,0,13.259-7.953,10.335-15.264L242.371,6.997  C240.679,2.771,236.586,0,232.035,0h27.559c4.551,0,8.644,2.771,10.335,6.997l13.357,33.391  C286.21,47.699,280.825,55.652,272.952,55.652z"/>
<path style="fill:#E2E2E2;" d="M186.435,111.304c0,4.61-3.738,8.348-8.348,8.348h-77.913c-4.61,0-8.348-3.738-8.348-8.348  s3.738-8.348,8.348-8.348h77.913C182.697,102.957,186.435,106.694,186.435,111.304z M155.826,136.348h-55.652  c-4.61,0-8.348,3.738-8.348,8.348c0,4.61,3.738,8.348,8.348,8.348h55.652c4.61,0,8.348-3.738,8.348-8.348  C164.174,140.085,160.436,136.348,155.826,136.348z"/>
<path style="fill:#CEDEEC;" d="M378.435,411.826H55.652V200.348h322.783V411.826z"/>
<path style="fill:#ABC5FF;" d="M389.565,411.826H55.652V311.652h44.952c6.763,0,13.158,3.074,17.382,8.355l31.154,38.943  c4.224,5.28,10.621,8.354,17.382,8.354l59.424,0c6.456,0,12.594-2.803,16.823-7.681l138.039-159.275h8.756V411.826z"/>
<path style="fill:#5D7EAC;" d="M512,192.777v15.142c0,5.306-3.745,9.874-8.948,10.914l-27.754,5.551  c-1.932,6.905-4.67,13.47-8.116,19.588l15.702,23.552c2.943,4.414,2.361,10.292-1.39,14.044l-10.706,10.706  c-3.752,3.752-9.63,4.334-14.044,1.39l-23.552-15.702c-6.118,3.446-12.683,6.184-19.588,8.116l-5.551,27.754  c-1.041,5.202-5.609,8.948-10.915,8.948h-15.142c-5.306,0-9.874-3.745-10.914-8.948l-5.551-27.754  c-6.905-1.932-13.47-4.67-19.588-8.116l-23.552,15.702c-4.414,2.943-10.292,2.361-14.044-1.39l-10.706-10.706  c-3.752-3.752-4.334-9.63-1.39-14.044l15.702-23.552c-3.446-6.118-6.184-12.683-8.116-19.588l-27.754-5.551  c-5.202-1.041-8.948-5.609-8.948-10.914v-15.142c0-5.306,3.745-9.874,8.948-10.914l27.754-5.551  c1.932-6.905,4.67-13.47,8.116-19.588l-15.702-23.552c-2.943-4.414-2.361-10.292,1.39-14.044l10.706-10.706  c3.752-3.752,9.63-4.334,14.044-1.39l23.552,15.702c6.118-3.446,12.683-6.184,19.588-8.116l5.551-27.754  c1.041-5.202,5.609-8.948,10.914-8.948h15.142c5.306,0,9.874,3.745,10.915,8.948l5.551,27.754c6.905,1.932,13.47,4.67,19.588,8.116  l23.552-15.702c4.414-2.943,10.292-2.361,14.044,1.39l10.706,10.706c3.752,3.752,4.334,9.63,1.39,14.044l-15.702,23.552  c3.446,6.118,6.184,12.683,8.116,19.588l27.754,5.551C508.255,182.903,512,187.471,512,192.777z"/>
<path style="fill:#ABC5FF;" d="M450.783,200.348c0,33.81-27.408,61.217-61.217,61.217s-61.217-27.408-61.217-61.217  s27.408-61.217,61.217-61.217S450.783,166.538,450.783,200.348z"/>
<path style="fill:#5D7EAC;" d="M426.296,200.348c0,20.285-16.445,36.73-36.73,36.73c-20.285,0-36.73-16.445-36.73-36.73  s16.445-36.73,36.73-36.73C409.85,163.617,426.296,180.063,426.296,200.348z"/>
<path style="fill:#809DED;" d="M401.809,200.348c0,15.991-10.222,29.589-24.487,34.632c-14.265-5.043-24.487-18.641-24.487-34.632  s10.222-29.589,24.487-34.632C391.586,170.759,401.809,184.357,401.809,200.348z"/>
<g>
</g>
<g>
</g>
<g>
</g>
<g>
</g>
<g>
</g>
<g>
</g>
<g>
</g>
<g>
</g>
<g>
</g>
<g>
</g>
<g>
</g>
<g>
</g>
<g>
</g>
<g>
</g>
<g>
</g>
</svg>
