<?xml version="1.0" encoding="iso-8859-1"?>
<!-- Generator: Adobe Illustrator 19.0.0, SVG Export Plug-In . SVG Version: 6.00 Build 0)  -->
<svg xmlns="http://www.w3.org/2000/svg" xmlns:xlink="http://www.w3.org/1999/xlink" version="1.1" id="Layer_1" x="0px" y="0px" viewBox="0 0 512 512" style="enable-background:new 0 0 512 512;" xml:space="preserve">
<path style="fill:#BFBFBF;" d="M178.087,11.13v100.174l-33.391,55.652v66.783h-44.522v-66.783l-33.391-55.652V11.13  C66.783,4.983,71.766,0,77.913,0h89.043C173.104,0,178.087,4.983,178.087,11.13z"/>
<path style="fill:#999999;" d="M122.435,155.826h22.261v77.913h-22.261V155.826z M166.957,0h-22.261  c6.147,0,11.13,4.983,11.13,11.13v111.304l22.261-11.13V11.13C178.087,4.983,173.104,0,166.957,0z"/>
<path style="fill:#E2E2E2;" d="M122.435,122.435H89.043V0h33.391V122.435z"/>
<path style="fill:#6D6D6D;" d="M144.696,166.957h-44.522l-33.391-55.652h111.304L144.696,166.957z"/>
<path style="fill:#BFBFBF;" d="M512,503.652c0,4.61-3.738,8.348-8.348,8.348H8.348C3.738,512,0,508.262,0,503.652  s3.738-8.348,8.348-8.348h495.304C508.262,495.304,512,499.042,512,503.652z"/>
<g>
	<path style="fill:#6D6D6D;" d="M456.348,333.913v22.261v11.13v77.913v33.391V512h-44.522l-22.261-33.391H267.13L244.87,512h-33.391   l-22.261-33.391H66.783L44.522,512H0v-33.391v-11.13h256v-66.783v-33.391c0-6.147,4.983-11.13,11.13-11.13v-22.261H456.348z"/>
	<path style="fill:#6D6D6D;" d="M41.739,311.652v55.652c0,4.61-3.738,8.348-8.348,8.348s-8.348-3.738-8.348-8.348v-55.652   c0-4.61,3.738-8.348,8.348-8.348C38.002,303.304,41.739,307.042,41.739,311.652z M211.478,303.304c-4.61,0-8.348,3.738-8.348,8.348   v55.652c0,4.61,3.738,8.348,8.348,8.348c4.61,0,8.348-3.738,8.348-8.348v-55.652C219.826,307.042,216.088,303.304,211.478,303.304z   "/>
</g>
<path style="fill:#BFBFBF;" d="M289.391,478.609H0V356.174h289.391V478.609z"/>
<path style="fill:#999999;" d="M434.087,478.609H267.13V356.174h166.957V478.609z"/>
<path style="fill:#444444;" d="M86.261,400.696c0,4.61-3.738,8.348-8.348,8.348H33.391c-4.61,0-8.348-3.738-8.348-8.348  c0-4.61,3.738-8.348,8.348-8.348h44.522C82.523,392.348,86.261,396.085,86.261,400.696z M77.913,425.739H33.391  c-4.61,0-8.348,3.738-8.348,8.348s3.738,8.348,8.348,8.348h44.522c4.61,0,8.348-3.738,8.348-8.348S82.523,425.739,77.913,425.739z   M311.652,409.043h44.522c4.61,0,8.348-3.738,8.348-8.348c0-4.61-3.738-8.348-8.348-8.348h-44.522c-4.61,0-8.348,3.738-8.348,8.348  C303.304,405.306,307.042,409.043,311.652,409.043z M356.174,425.739h-44.522c-4.61,0-8.348,3.738-8.348,8.348  s3.738,8.348,8.348,8.348h44.522c4.61,0,8.348-3.738,8.348-8.348S360.784,425.739,356.174,425.739z"/>
<path style="fill:#BFBFBF;" d="M0,278.261h267.13v44.522H0V278.261z"/>
<path style="fill:#999999;" d="M0,300.522h267.13v22.261H0V300.522z"/>
<path style="fill:#6D6D6D;" d="M244.87,278.261h44.522v44.522H244.87V278.261z"/>
<path style="fill:#5D7EAC;" d="M166.957,233.739v44.522H0v-89.043h55.652l22.261,33.391h77.913  C161.973,222.609,166.957,227.592,166.957,233.739z M500.87,122.435H278.261c-6.147,0-11.13,4.983-11.13,11.13v222.609H500.87  c6.147,0,11.13-4.983,11.13-11.13V133.565C512,127.418,507.017,122.435,500.87,122.435z"/>
<path style="fill:#ABC5FF;" d="M467.478,311.652H333.913V166.957h133.565V311.652z"/>
<path style="fill:#CEDEEC;" d="M422.957,311.652h-44.522V166.957h44.522V311.652z"/>
<path style="fill:#344966;" d="M166.957,233.739v44.522h-22.261v-55.652h11.13C161.973,222.609,166.957,227.592,166.957,233.739z   M300.522,192c-4.61,0-8.348,3.738-8.348,8.348v77.913c0,4.61,3.738,8.348,8.348,8.348s8.348-3.738,8.348-8.348v-77.913  C308.87,195.738,305.132,192,300.522,192z M500.87,122.435h-11.13v233.739h11.13c6.147,0,11.13-4.983,11.13-11.13V133.565  C512,127.418,507.017,122.435,500.87,122.435z"/>
<g>
</g>
<g>
</g>
<g>
</g>
<g>
</g>
<g>
</g>
<g>
</g>
<g>
</g>
<g>
</g>
<g>
</g>
<g>
</g>
<g>
</g>
<g>
</g>
<g>
</g>
<g>
</g>
<g>
</g>
</svg>
