<?xml version="1.0" encoding="iso-8859-1"?>
<!-- Generator: Adobe Illustrator 19.0.0, SVG Export Plug-In . SVG Version: 6.00 Build 0)  -->
<svg xmlns="http://www.w3.org/2000/svg" xmlns:xlink="http://www.w3.org/1999/xlink" version="1.1" id="Layer_1" x="0px" y="0px" viewBox="0 0 512 512" style="enable-background:new 0 0 512 512;" xml:space="preserve">
<path style="fill:#CEDEEC;" d="M400.696,467.196C359.532,495.452,309.702,512,256,512C114.615,512,0,397.384,0,256  c0-44.35,11.283-86.064,31.127-122.435h113.568V25.402C178.352,9.127,216.11,0,256,0c141.384,0,256,114.616,256,256  c0,63.794-23.341,122.132-61.939,166.957h-49.366V467.196z"/>
<g>
	<path style="fill:#ABC5FF;" d="M256,512L256,512c-55.325,0-100.174-44.849-100.174-100.174V100.174C155.826,44.849,200.675,0,256,0   l0,0c55.325,0,100.174,44.849,100.174,100.174v311.652C356.174,467.151,311.325,512,256,512z"/>
	<path style="fill:#ABC5FF;" d="M20.349,155.826h471.304C504.747,186.595,512,220.449,512,256s-7.253,69.405-20.349,100.174H20.349   C7.253,325.405,0,291.551,0,256S7.253,186.595,20.349,155.826z"/>
</g>
<path style="fill:#809DED;" d="M155.826,155.826h200.348v200.348H155.826V155.826z"/>
<path style="fill:#FFB933;" d="M456.348,405.632v12.388c0,4.341-3.064,8.078-7.32,8.93l-22.707,4.541  c-1.581,5.65-3.821,11.021-6.642,16.027l12.847,19.27c2.408,3.612,1.932,8.421-1.138,11.491l-8.76,8.76  c-3.07,3.07-7.879,3.546-11.491,1.138l-19.27-12.847c-5.005,2.819-10.377,5.06-16.027,6.64l-4.541,22.707  c-0.852,4.256-4.589,7.32-8.93,7.32h-12.388c-4.341,0-8.078-3.064-8.93-7.32l-4.541-22.707c-5.65-1.581-11.021-3.821-16.027-6.64  l-19.27,12.847c-3.612,2.408-8.421,1.932-11.491-1.138l-8.76-8.76c-3.07-3.07-3.546-7.879-1.138-11.491l12.847-19.27  c-2.819-5.005-5.06-10.377-6.642-16.027l-22.707-4.541c-4.256-0.851-7.32-4.589-7.32-8.93v-12.388c0-4.341,3.064-8.078,7.32-8.93  l22.707-4.541c1.581-5.65,3.821-11.021,6.642-16.027l-12.847-19.27c-2.408-3.612-1.932-8.421,1.138-11.491l8.76-8.76  c3.07-3.07,7.879-3.546,11.491-1.138l19.27,12.847c5.005-2.819,10.377-5.06,16.027-6.64l4.541-22.707  c0.852-4.256,4.589-7.32,8.93-7.32h12.388c4.341,0,8.078,3.064,8.93,7.32l4.541,22.707c5.65,1.581,11.021,3.821,16.027,6.64  l19.27-12.847c3.612-2.408,8.421-1.932,11.491,1.138l8.76,8.76c3.07,3.07,3.546,7.879,1.138,11.491l-12.847,19.27  c2.819,5.005,5.06,10.377,6.642,16.027l22.707,4.541C453.284,397.554,456.348,401.291,456.348,405.632z"/>
<path style="fill:#FFE473;" d="M408.487,411.826c0,28.891-23.422,52.313-52.313,52.313s-52.313-23.422-52.313-52.313  c0-28.891,23.422-52.313,52.313-52.313S408.487,382.935,408.487,411.826z"/>
<path style="fill:#5D7EAC;" d="M311.652,146.19v19.271c0,6.753-4.766,12.566-11.388,13.891l-35.322,7.064  c-2.459,8.789-5.945,17.144-10.33,24.931l19.984,29.975c3.745,5.619,3.005,13.099-1.77,17.874l-13.627,13.627  c-4.775,4.775-12.256,5.516-17.874,1.77l-29.975-19.984c-7.787,4.386-16.142,7.871-24.931,10.33l-7.064,35.322  c-1.325,6.621-7.138,11.388-13.891,11.388h-19.271c-6.753,0-12.566-4.766-13.891-11.388l-7.064-35.322  c-8.789-2.459-17.144-5.944-24.931-10.33L70.33,274.594c-5.619,3.745-13.099,3.005-17.874-1.77l-13.627-13.627  c-4.775-4.775-5.516-12.256-1.77-17.874l19.984-29.975c-4.387-7.787-7.871-16.142-10.33-24.931l-35.322-7.064  C4.766,178.028,0,172.215,0,165.462V146.19c0-6.753,4.766-12.566,11.388-13.891l35.322-7.064c2.46-8.789,5.944-17.144,10.33-24.931  L37.057,70.329c-3.745-5.619-3.005-13.099,1.77-17.874l13.627-13.627c4.775-4.775,12.256-5.515,17.874-1.77l29.975,19.984  c7.787-4.387,16.142-7.871,24.931-10.33l7.064-35.322C133.624,4.766,139.438,0,146.19,0h19.271c6.753,0,12.566,4.766,13.891,11.388  l7.064,35.322c8.789,2.459,17.144,5.944,24.931,10.33l29.975-19.984c5.619-3.745,13.099-3.005,17.874,1.77l13.627,13.627  c4.775,4.775,5.516,12.256,1.77,17.874l-19.984,29.975c4.386,7.787,7.871,16.142,10.33,24.931l35.322,7.064  C306.886,133.624,311.652,139.438,311.652,146.19z"/>
<path style="fill:#809DED;" d="M235.965,155.826c0,44.259-35.88,80.139-80.139,80.139s-80.139-35.88-80.139-80.139  s35.879-80.139,80.139-80.139S235.965,111.566,235.965,155.826z"/>
<path style="fill:#344966;" d="M202.574,155.826c0,25.818-20.93,46.748-46.748,46.748s-46.748-20.93-46.748-46.748  s20.93-46.748,46.748-46.748S202.574,130.008,202.574,155.826z M356.174,381.774c-16.598,0-30.052,13.454-30.052,30.052  s13.454,30.052,30.052,30.052s30.052-13.454,30.052-30.052S372.772,381.774,356.174,381.774z"/>
<path style="fill:#5D7EAC;" d="M171.409,155.826c0,20.353-13.01,37.659-31.165,44.078c-18.155-6.419-31.165-23.725-31.165-44.078  s13.01-37.659,31.165-44.078C158.398,118.167,171.409,135.473,171.409,155.826z M343.374,384.634  c-10.194,4.807-17.252,15.174-17.252,27.192c0,12.018,7.058,22.384,17.252,27.192c10.194-4.807,17.252-15.174,17.252-27.192  C360.626,399.809,353.568,389.442,343.374,384.634z"/>
<g>
</g>
<g>
</g>
<g>
</g>
<g>
</g>
<g>
</g>
<g>
</g>
<g>
</g>
<g>
</g>
<g>
</g>
<g>
</g>
<g>
</g>
<g>
</g>
<g>
</g>
<g>
</g>
<g>
</g>
</svg>
