<?xml version="1.0" encoding="iso-8859-1"?>
<!-- Generator: Adobe Illustrator 19.0.0, SVG Export Plug-In . SVG Version: 6.00 Build 0)  -->
<svg xmlns="http://www.w3.org/2000/svg" xmlns:xlink="http://www.w3.org/1999/xlink" version="1.1" id="Layer_1" x="0px" y="0px" viewBox="0 0 512 512" style="enable-background:new 0 0 512 512;" xml:space="preserve">
<path style="fill:#CEDEEC;" d="M256,311.652v33.391H0v-33.391V22.261C0,9.966,9.966,0,22.261,0h130.964  c20.994,0,39.135,14.665,43.533,35.193L256,311.652z"/>
<path style="fill:#809DED;" d="M155.826,333.913H22.261C9.966,333.913,0,323.947,0,311.652V256V155.826h33.391  c12.295,0,22.261,9.966,22.261,22.261V256h77.913c12.295,0,22.261,9.966,22.261,22.261V333.913z"/>
<path style="fill:#5D7EAC;" d="M155.826,289.391v44.522H22.261C9.966,333.913,0,323.947,0,311.652v-22.261H155.826z"/>
<path style="fill:#6D6D6D;" d="M214.478,197.565h-34.046l2.972,11.888c1.119,4.472-1.601,9.005-6.074,10.123  c-0.679,0.17-1.361,0.252-2.031,0.252c-3.74,0-7.144-2.532-8.092-6.325l-11.13-44.522c-1.119-4.472,1.601-9.005,6.074-10.123  c4.469-1.119,9.005,1.601,10.123,6.074l3.985,15.938h34.642L180.433,38.692c-2.73-12.745-14.174-21.996-27.207-21.996H22.261  c-3.069,0-5.565,2.497-5.565,5.565v289.391H0V22.261C0,9.966,9.966,0,22.261,0h130.964c20.994,0,39.135,14.665,43.533,35.193  L256,311.652h-17.075L214.478,197.565z"/>
<path style="fill:#FF9600;" d="M512,267.13v33.391l-135.791,11.13h-53.426V267.13l0,0h53.426l0,0H512z"/>
<g>
	<path style="fill:#FFB933;" d="M512,289.391H322.783V267.13H512V289.391z"/>
	<path style="fill:#FFB933;" d="M322.783,311.652v133.565H22.261C9.966,445.217,0,435.251,0,422.957V311.652h155.826H256H322.783z"/>
</g>
<path style="fill:#BFBFBF;" d="M111.304,503.652c0,4.61-3.738,8.348-8.348,8.348H8.348C3.738,512,0,508.262,0,503.652  s3.738-8.348,8.348-8.348h94.609C107.567,495.304,111.304,499.042,111.304,503.652z M486.957,495.304h-267.13  c-4.61,0-8.348,3.738-8.348,8.348s3.738,8.348,8.348,8.348h267.13c4.61,0,8.348-3.738,8.348-8.348S491.567,495.304,486.957,495.304z  "/>
<path style="fill:#FF9600;" d="M322.783,311.652v89.043v44.522H256H22.261C9.966,445.217,0,435.251,0,422.957v-22.261h189.217  c36.883,0,66.783-29.9,66.783-66.783v-22.261H322.783z"/>
<path style="fill:#6D6D6D;" d="M333.913,66.783v333.913h-44.522v-256l-22.261-22.261V66.783h22.261H333.913z"/>
<path style="fill:#444444;" d="M311.652,66.783h22.261v322.783h-22.261V66.783z"/>
<path style="fill:#999999;" d="M166.957,445.217c0,36.883-29.9,66.783-66.783,66.783s-66.783-29.9-66.783-66.783  s29.9-66.783,66.783-66.783S166.957,408.334,166.957,445.217z M311.327,357.009c-3.682,0-6.984-0.563-10.53-0.069  c-37.894,5.28-67.058,37.799-67.058,77.147c0,43.03,34.883,77.913,77.913,77.913s77.913-34.883,77.913-77.913  c0-35.295-23.467-65.107-55.651-74.686c-3.61-1.074-7.329-0.781-11.137-1.326C319.144,357.555,315.105,357.009,311.327,357.009z"/>
<path style="fill:#6D6D6D;" d="M166.957,445.217c0,36.883-29.9,66.783-66.783,66.783c-3.794,0-7.509-0.333-11.13-0.941  c31.583-5.301,55.652-32.752,55.652-65.842s-24.07-60.541-55.652-65.842c3.622-0.608,7.336-0.941,11.13-0.941  C137.057,378.435,166.957,408.334,166.957,445.217z M311.652,356.174c-3.781,0-7.494,0.284-11.13,0.805  c37.756,5.403,66.783,37.859,66.783,77.108s-29.027,71.706-66.783,77.108c3.636,0.521,7.349,0.805,11.13,0.805  c43.03,0,77.913-34.883,77.913-77.913S354.682,356.174,311.652,356.174z"/>
<path style="fill:#FF9600;" d="M128,445.217c0,15.368-12.458,27.826-27.826,27.826s-27.826-12.458-27.826-27.826  s12.458-27.826,27.826-27.826S128,429.85,128,445.217z M311.652,395.13c-21.515,0-38.957,17.441-38.957,38.957  c0,21.515,17.441,38.957,38.957,38.957s38.957-17.441,38.957-38.957C350.609,412.572,333.167,395.13,311.652,395.13z"/>
<path style="fill:#FFB933;" d="M111.304,445.217c0,12.459-8.19,23.004-19.478,26.551c-11.288-3.546-19.478-14.091-19.478-26.551  s8.19-23.004,19.478-26.551C103.115,422.213,111.304,432.758,111.304,445.217z M297.739,397.698  c-14.642,5.603-25.043,19.778-25.043,36.389c0,16.611,10.401,30.786,25.043,36.389c14.642-5.603,25.043-19.778,25.043-36.389  C322.783,417.476,312.381,403.301,297.739,397.698z"/>
<g>
</g>
<g>
</g>
<g>
</g>
<g>
</g>
<g>
</g>
<g>
</g>
<g>
</g>
<g>
</g>
<g>
</g>
<g>
</g>
<g>
</g>
<g>
</g>
<g>
</g>
<g>
</g>
<g>
</g>
</svg>
