<?xml version="1.0" encoding="iso-8859-1"?>
<!-- Generator: Adobe Illustrator 19.0.0, SVG Export Plug-In . SVG Version: 6.00 Build 0)  -->
<svg xmlns="http://www.w3.org/2000/svg" xmlns:xlink="http://www.w3.org/1999/xlink" version="1.1" id="Layer_1" x="0px" y="0px" viewBox="0 0 512 512" style="enable-background:new 0 0 512 512;" xml:space="preserve">
<path style="fill:#FFD34E;" d="M456.348,478.609v22.261c0,6.147-4.983,11.13-11.13,11.13H66.783c-6.147,0-11.13-4.983-11.13-11.13  v-22.261c0-6.147,4.983-11.13,11.13-11.13h378.435C451.365,467.478,456.348,472.461,456.348,478.609z M445.217,0H66.783  c-6.147,0-11.13,4.983-11.13,11.13v22.261c0,6.147,4.983,11.13,11.13,11.13h378.435c6.147,0,11.13-4.983,11.13-11.13V11.13  C456.348,4.983,451.365,0,445.217,0z"/>
<path style="fill:#6D6D6D;" d="M66.783,467.478h75.242L97.503,512h-30.72c-6.147,0-11.13-4.983-11.13-11.13v-22.261  C55.652,472.461,60.635,467.478,66.783,467.478z M55.652,11.13v22.261c0,6.147,4.983,11.13,11.13,11.13h30.72L142.024,0H66.783  C60.635,0,55.652,4.983,55.652,11.13z M188.327,44.522h90.379L323.228,0h-90.379L188.327,44.522z M445.217,467.478h-31.165  L369.53,512h75.687c6.147,0,11.13-4.983,11.13-11.13v-22.261C456.348,472.461,451.365,467.478,445.217,467.478z M188.327,512h90.379  l44.522-44.522h-90.379L188.327,512z M445.217,0h-31.165L369.53,44.522h75.687c6.147,0,11.13-4.983,11.13-11.13V11.13  C456.348,4.983,451.365,0,445.217,0z"/>
<path style="fill:#BC8E50;" d="M394.178,395.68c-2.73,9.557-11.464,16.146-21.404,16.146H139.226  c-9.939,0-18.674-6.589-21.404-16.146l-17.648-61.767h311.652L394.178,395.68z"/>
<path style="fill:#996633;" d="M411.826,333.913l-17.648,61.767c-2.73,9.557-11.464,16.146-21.404,16.146h-33.391  c9.939,0,18.674-6.589,21.404-16.146l17.648-61.767H411.826z"/>
<path style="fill:#8BAD67;" d="M445.217,322.783L445.217,322.783c0,12.295-9.966,22.261-22.261,22.261h-14.26l-2.922-1.601  l-14.053,1.601h-1.809H89.043c-12.295,0-22.261-9.966-22.261-22.261l0,0c0-12.295,9.966-22.261,22.261-22.261l0,0v-22.261h333.913  v22.261C435.251,300.522,445.217,310.488,445.217,322.783z"/>
<path style="fill:#687B40;" d="M445.217,322.783L445.217,322.783c0,12.295-9.966,22.261-22.261,22.261h-33.391  c12.295,0,22.261-9.966,22.261-22.261l0,0c0-12.295-9.966-22.261-22.261-22.261v-22.261h33.391v22.261  C435.251,300.522,445.217,310.488,445.217,322.783z"/>
<path style="fill:#BC8E50;" d="M434.087,189.217L434.087,189.217c0,12.295-9.966,22.261-22.261,22.261H100.174  c-12.295,0-22.261-9.966-22.261-22.261l0,0c0-49.178,39.866-89.043,89.043-89.043h178.087  C394.221,100.174,434.087,140.04,434.087,189.217z"/>
<path style="fill:#996633;" d="M434.087,189.217c0,12.295-9.966,22.261-22.261,22.261h-33.391c12.295,0,22.261-9.966,22.261-22.261  c0-49.178-39.866-89.043-89.043-89.043h33.391C394.221,100.174,434.087,140.04,434.087,189.217z"/>
<path style="fill:#FFB933;" d="M256,278.261v77.913c0,12.295-9.966,22.261-22.261,22.261s-22.261-9.966-22.261-22.261v-11.13  c0,12.295-9.966,22.261-22.261,22.261c-12.295,0-22.261-9.966-22.261-22.261v-66.783h44.522H256z"/>
<path style="fill:#FFD34E;" d="M233.739,278.261v100.174c-12.295,0-22.261-9.966-22.261-22.261v-11.13  c0,12.295-9.966,22.261-22.261,22.261c-12.295,0-22.261-9.966-22.261-22.261v-66.783h44.522H233.739z"/>
<path style="fill:#FF6600;" d="M445.217,278.261L445.217,278.261c0,12.295-9.966,22.261-22.261,22.261H89.043  c-12.295,0-22.261-9.966-22.261-22.261l0,0c0-12.295,9.966-22.261,22.261-22.261h333.913  C435.251,256,445.217,265.966,445.217,278.261z"/>
<path style="fill:#990000;" d="M445.217,278.261L445.217,278.261c0,12.295-9.966,22.261-22.261,22.261h-33.391  c12.295,0,22.261-9.966,22.261-22.261l0,0c0-12.295-9.966-22.261-22.261-22.261h33.391C435.251,256,445.217,265.966,445.217,278.261  z"/>
<g>
</g>
<g>
</g>
<g>
</g>
<g>
</g>
<g>
</g>
<g>
</g>
<g>
</g>
<g>
</g>
<g>
</g>
<g>
</g>
<g>
</g>
<g>
</g>
<g>
</g>
<g>
</g>
<g>
</g>
</svg>
