<?xml version="1.0" encoding="iso-8859-1"?>
<!-- Generator: Adobe Illustrator 19.0.0, SVG Export Plug-In . SVG Version: 6.00 Build 0)  -->
<svg xmlns="http://www.w3.org/2000/svg" xmlns:xlink="http://www.w3.org/1999/xlink" version="1.1" id="Layer_1" x="0px" y="0px" viewBox="0 0 512 512" style="enable-background:new 0 0 512 512;" xml:space="preserve">
<path style="fill:#999999;" d="M205.913,100.174l11.13,356.174H94.609l11.13-356.174H205.913z M389.565,144.696H289.391  l-11.13,311.652h122.435L389.565,144.696z"/>
<path style="fill:#6D6D6D;" d="M205.913,100.174l11.13,356.174h-27.826l-11.13-356.174H205.913z M389.565,144.696h-27.826  l11.13,311.652h27.826L389.565,144.696z"/>
<path style="fill:#BFBFBF;" d="M122.435,100.174h22.261v300.522h-22.261V100.174z M311.652,144.696v256h22.261v-256H311.652z"/>
<path style="fill:#FFD34E;" d="M478.609,456.348H155.826v-89.043L434.087,256h44.522V456.348z"/>
<path style="fill:#FFB933;" d="M489.739,467.478V512H22.261v-44.522c0-6.147,4.983-11.13,11.13-11.13h411.826V256h33.391v200.348  C484.756,456.348,489.739,461.331,489.739,467.478z"/>
<path style="fill:#FF9600;" d="M512,503.652c0,4.61-3.738,8.348-8.348,8.348H8.348C3.738,512,0,508.262,0,503.652  s3.738-8.348,8.348-8.348h495.304C508.262,495.304,512,499.042,512,503.652z"/>
<path style="fill:#5D7EAC;" d="M278.261,381.994v15.142c0,5.306-3.745,9.874-8.948,10.915l-27.754,5.551  c-1.932,6.905-4.67,13.47-8.116,19.588l15.702,23.552c2.943,4.414,2.361,10.292-1.39,14.044l-10.706,10.706  c-3.752,3.752-9.63,4.334-14.044,1.39l-23.552-15.702c-6.118,3.446-12.683,6.184-19.588,8.116l-5.551,27.754  c-1.041,5.202-5.609,8.948-10.915,8.948h-15.142c-5.306,0-9.874-3.745-10.915-8.948l-5.551-27.754  c-6.905-1.932-13.47-4.67-19.588-8.116l-23.552,15.702c-4.414,2.943-10.292,2.361-14.044-1.39L63.9,470.786  c-3.752-3.752-4.334-9.63-1.39-14.044l15.702-23.552c-3.446-6.118-6.184-12.683-8.116-19.588l-27.754-5.551  c-5.202-1.041-8.948-5.609-8.948-10.915v-15.142c0-5.306,3.745-9.874,8.948-10.914l27.754-5.551  c1.932-6.905,4.67-13.47,8.116-19.588L62.51,322.389c-2.943-4.414-2.361-10.292,1.39-14.044l10.706-10.706  c3.752-3.752,9.63-4.334,14.044-1.39l23.552,15.702c6.118-3.446,12.683-6.184,19.588-8.116l5.551-27.754  c1.041-5.202,5.609-8.948,10.915-8.948h15.142c5.306,0,9.874,3.745,10.915,8.948l5.551,27.754c6.905,1.932,13.47,4.67,19.588,8.116  l23.552-15.702c4.414-2.943,10.292-2.361,14.044,1.39l10.706,10.706c3.752,3.752,4.334,9.63,1.39,14.044l-15.702,23.552  c3.446,6.118,6.184,12.683,8.116,19.588l27.754,5.551C274.515,372.12,278.261,376.688,278.261,381.994z"/>
<path style="fill:#ABC5FF;" d="M214.817,389.565c0,32.58-26.411,58.991-58.991,58.991s-58.991-26.411-58.991-58.991  s26.411-58.991,58.991-58.991S214.817,356.985,214.817,389.565z"/>
<path style="fill:#809DED;" d="M192.557,389.565c0,20.285-16.445,36.73-36.73,36.73s-36.73-16.445-36.73-36.73  c0-20.285,16.445-36.73,36.73-36.73S192.557,369.28,192.557,389.565z"/>
<path style="fill:#5D7EAC;" d="M192.557,389.565c0,20.285-16.445,36.73-36.73,36.73c-4.502,0-8.814-0.814-12.8-2.296  c13.973-5.197,23.93-18.651,23.93-34.434c0-15.783-9.957-29.237-23.93-34.434c3.986-1.483,8.298-2.296,12.8-2.296  C176.111,352.835,192.557,369.28,192.557,389.565z"/>
<path style="fill:#CEDEEC;" d="M512,66.783v11.13c0,12.295-9.966,22.261-22.261,22.261H278.261  c-12.295,0-22.261-9.966-22.261-22.261v-11.13c0-4.059,1.104-7.854,3.002-11.13H55.652c-12.295,0-22.261-9.966-22.261-22.261v-11.13  C33.391,9.966,43.357,0,55.652,0h400.696c12.295,0,22.261,9.966,22.261,22.261v11.13c0,4.059-1.104,7.854-3.003,11.13h14.133  C502.034,44.522,512,54.488,512,66.783z"/>
<path style="fill:#ABC5FF;" d="M512,66.783v11.13c0,12.295-9.966,22.261-22.261,22.261h-11.13h-22.261  c12.295,0,22.261-9.966,22.261-22.261l0,0c0-12.295-9.966-22.261-22.261-22.261h-22.261H311.652h-5.565  c-9.22,0-16.696-7.475-16.696-16.696s7.475-16.696,16.696-16.696h5.565h44.522h83.478h5.565c6.147,0,11.13-4.983,11.13-11.13  S451.365,0,445.217,0h11.13c12.295,0,22.261,9.966,22.261,22.261v11.13c0,4.059-1.104,7.854-3.003,11.13h3.003h11.13  C502.034,44.522,512,54.488,512,66.783z"/>
<g>
</g>
<g>
</g>
<g>
</g>
<g>
</g>
<g>
</g>
<g>
</g>
<g>
</g>
<g>
</g>
<g>
</g>
<g>
</g>
<g>
</g>
<g>
</g>
<g>
</g>
<g>
</g>
<g>
</g>
</svg>
