<?xml version="1.0" encoding="iso-8859-1"?>
<!-- Generator: Adobe Illustrator 19.0.0, SVG Export Plug-In . SVG Version: 6.00 Build 0)  -->
<svg xmlns="http://www.w3.org/2000/svg" xmlns:xlink="http://www.w3.org/1999/xlink" version="1.1" id="Layer_1" x="0px" y="0px" viewBox="0 0 512 512" style="enable-background:new 0 0 512 512;" xml:space="preserve">
<path style="fill:#999999;" d="M378.435,467.478V512H22.261v-44.522c0-6.147,4.983-11.13,11.13-11.13h11.13l42.971-257.83  c0.895-5.367,5.539-9.301,10.979-9.301h203.75c5.441,0,10.084,3.934,10.979,9.301l42.972,257.83h11.13  C373.452,456.348,378.435,461.331,378.435,467.478z"/>
<path style="fill:#CEDEEC;" d="M489.739,33.391v22.261c0,18.442-14.949,33.391-33.391,33.391h-89.043v11.13  c0,18.442-14.949,33.391-33.391,33.391H66.783c-18.442,0-33.391-14.949-33.391-33.391V77.913c0-18.442,14.949-33.391,33.391-33.391  h55.652v-11.13C122.435,14.949,137.384,0,155.826,0h300.522C474.79,0,489.739,14.949,489.739,33.391z"/>
<path style="fill:#6D6D6D;" d="M378.435,467.478V512h-33.391v-44.522c0-6.147-4.983-11.13-11.13-11.13h-11.13H44.522l5.565-33.391  H290.94c13.756,0,24.22-12.351,21.958-25.921l-33.086-198.518c-0.895-5.367-5.538-9.301-10.979-9.301h33.391  c5.441,0,10.084,3.934,10.979,9.301l42.971,257.83h11.13C373.452,456.348,378.435,461.331,378.435,467.478z"/>
<path style="fill:#ABC5FF;" d="M489.739,33.391v22.261c0,18.442-14.949,33.391-33.391,33.391l0,0h-33.391h-55.652v11.13  c0,18.442-14.949,33.391-33.391,33.391h-33.391c18.452,0,33.408-14.966,33.391-33.421c-0.006-6.133-4.998-11.1-11.13-11.1h-61.217  c-9.489,0-17.129-7.915-16.677-17.503c0.423-8.98,8.159-15.889,17.149-15.889h44.05h116.87h5.565  c15.368,0,27.826-12.458,27.826-27.826S443.89,0,428.522,0h27.826C474.79,0,489.739,14.949,489.739,33.391z"/>
<path style="fill:#BFBFBF;" d="M178.087,456.348h-66.783v-33.391l22.261-233.739h44.522v233.739V456.348z"/>
<path style="fill:#999999;" d="M178.087,456.348h-66.783v-33.391h66.783V456.348z"/>
<path style="fill:#6D6D6D;" d="M512,503.652c0,4.61-3.738,8.348-8.348,8.348H8.348C3.738,512,0,508.262,0,503.652  s3.738-8.348,8.348-8.348h495.304C508.262,495.304,512,499.042,512,503.652z"/>
<g>
</g>
<g>
</g>
<g>
</g>
<g>
</g>
<g>
</g>
<g>
</g>
<g>
</g>
<g>
</g>
<g>
</g>
<g>
</g>
<g>
</g>
<g>
</g>
<g>
</g>
<g>
</g>
<g>
</g>
</svg>
