<?xml version="1.0" encoding="iso-8859-1"?>
<!-- Generator: Adobe Illustrator 19.0.0, SVG Export Plug-In . SVG Version: 6.00 Build 0)  -->
<svg xmlns="http://www.w3.org/2000/svg" xmlns:xlink="http://www.w3.org/1999/xlink" version="1.1" id="Layer_1" x="0px" y="0px" viewBox="0 0 512 512" style="enable-background:new 0 0 512 512;" xml:space="preserve">
<path style="fill:#BFBFBF;" d="M512,240.17v31.661c0,11.094-7.83,20.645-18.708,22.821l-58.03,11.606  c-4.04,14.439-9.766,28.166-16.972,40.959l32.83,49.245c6.154,9.23,4.936,21.522-2.907,29.365l-22.387,22.387  c-7.845,7.845-20.135,9.061-29.365,2.907l-49.245-32.83c-12.792,7.206-26.519,12.931-40.959,16.972l-11.606,58.03  C292.476,504.17,282.923,512,271.83,512H240.17c-11.094,0-20.645-7.83-22.821-18.709l-11.606-58.03  c-14.439-4.04-28.166-9.766-40.959-16.972l-49.245,32.83c-9.23,6.154-21.522,4.936-29.365-2.907l-22.387-22.387  c-7.845-7.845-9.061-20.135-2.907-29.365l32.83-49.245c-7.206-12.792-12.931-26.519-16.972-40.959l-58.03-11.606  C7.83,292.476,0,282.923,0,271.83v-31.661c0-11.094,7.83-20.645,18.708-22.821l58.03-11.606c4.04-14.44,9.766-28.166,16.972-40.959  l-32.83-49.245c-6.154-9.23-4.936-21.521,2.907-29.365l22.387-22.387c7.845-7.845,20.135-9.061,29.365-2.907l49.245,32.83  c12.792-7.206,26.519-12.931,40.959-16.972l11.606-58.03C219.524,7.83,229.077,0,240.17,0h31.659  c11.094,0,20.645,7.83,22.821,18.708l11.606,58.03c14.44,4.04,28.166,9.766,40.959,16.972l49.245-32.83  c9.23-6.154,21.522-4.936,29.365,2.907l22.387,22.387c7.845,7.845,9.061,20.135,2.907,29.365l-32.83,49.245  c7.206,12.792,12.931,26.519,16.972,40.959l58.03,11.606C504.17,219.524,512,229.077,512,240.17z"/>
<path style="fill:#999999;" d="M399.583,256c0,79.299-64.284,143.583-143.583,143.583S112.417,335.299,112.417,256  S176.701,112.417,256,112.417S399.583,176.701,399.583,256z"/>
<path style="fill:#E2E2E2;" d="M366.191,256c0,60.857-49.335,110.191-110.191,110.191S145.809,316.857,145.809,256  S195.143,145.809,256,145.809S366.191,195.143,366.191,256z"/>
<path style="fill:#6D6D6D;" d="M310.539,256c0,30.121-24.418,54.539-54.539,54.539S201.461,286.121,201.461,256  s24.418-54.539,54.539-54.539C286.121,201.461,310.539,225.879,310.539,256z"/>
<path style="fill:#444444;" d="M310.539,256c0,30.121-24.418,54.539-54.539,54.539c-7.716,0-15.052-1.612-21.704-4.501  c19.319-8.391,32.835-27.632,32.835-50.038s-13.516-41.647-32.835-50.038c6.653-2.889,13.989-4.501,21.704-4.501  C286.121,201.461,310.539,225.879,310.539,256z"/>
<path style="fill:#8BAD67;" d="M484.342,179.773c-4.767,30.985-19.289,59.642-41.456,81.81l0,0  c-53.149,53.149-139.32,53.149-192.469,0l0,0c-53.149-53.149-53.149-139.32,0-192.469l0,0c22.167-22.167,50.825-36.689,81.81-41.456  L512,0l0,0L484.342,179.773z"/>
<g>
	<path style="fill:#687B40;" d="M508.419,23.275l-24.077,156.498c-4.767,30.985-19.289,59.642-41.456,81.81l0,0   c-53.138,53.138-139.285,53.148-192.436,0.031c46.232,21.76,102.489,18.944,147.477-12.296l0,0   c27.984-19.432,49.043-47.28,60.118-79.498L508.419,23.275z"/>
	<path style="fill:#687B40;" d="M447.914,75.892l-50.21,50.211l28.447,5.69c4.521,0.905,7.453,5.303,6.549,9.823   c-0.794,3.968-4.28,6.713-8.177,6.713c-0.542,0-1.093-0.053-1.646-0.164l-39.363-7.873l-29.554,29.554l28.447,5.69   c4.521,0.905,7.453,5.303,6.549,9.823c-0.794,3.968-4.28,6.713-8.177,6.713c-0.542,0-1.093-0.053-1.646-0.164l-39.363-7.873   l-29.555,29.555l28.448,5.69c4.521,0.905,7.453,5.303,6.549,9.823c-0.794,3.968-4.28,6.713-8.178,6.713   c-0.542,0-1.093-0.053-1.646-0.164l-39.363-7.873l-71.505,71.505c-0.249,0.249-0.514,0.473-0.786,0.685   c-4.47-3.286-8.419-7.235-11.705-11.705c0.211-0.272,0.435-0.536,0.685-0.786l31.982-31.982l0,0l39.524-39.523l-7.873-39.363   c-0.904-4.521,2.028-8.919,6.549-9.823c4.521-0.904,8.919,2.028,9.823,6.549l5.69,28.447l29.555-29.555l-7.873-39.363   c-0.904-4.521,2.028-8.919,6.549-9.823c4.521-0.904,8.919,2.028,9.823,6.549l5.69,28.447l29.554-29.554l-7.873-39.363   c-0.904-4.521,2.028-8.919,6.549-9.823c4.522-0.905,8.919,2.028,9.823,6.549l5.69,28.447l50.21-50.21   c3.26-3.26,8.546-3.26,11.805,0C451.174,67.346,451.174,72.632,447.914,75.892z"/>
</g>
<g>
</g>
<g>
</g>
<g>
</g>
<g>
</g>
<g>
</g>
<g>
</g>
<g>
</g>
<g>
</g>
<g>
</g>
<g>
</g>
<g>
</g>
<g>
</g>
<g>
</g>
<g>
</g>
<g>
</g>
</svg>
