<?xml version="1.0" encoding="iso-8859-1"?>
<!-- Generator: Adobe Illustrator 19.0.0, SVG Export Plug-In . SVG Version: 6.00 Build 0)  -->
<svg xmlns="http://www.w3.org/2000/svg" xmlns:xlink="http://www.w3.org/1999/xlink" version="1.1" id="Layer_1" x="0px" y="0px" viewBox="0 0 512 512" style="enable-background:new 0 0 512 512;" xml:space="preserve">
<path style="fill:#999999;" d="M256,0C114.615,0,0,114.616,0,256s114.615,256,256,256s256-114.616,256-256S397.384,0,256,0z   M256,345.043c-49.178,0-89.043-39.866-89.043-89.043s39.866-89.043,89.043-89.043s89.043,39.866,89.043,89.043  S305.178,345.043,256,345.043z"/>
<path style="fill:#BFBFBF;" d="M256,22.261C126.909,22.261,22.261,126.909,22.261,256S126.909,489.739,256,489.739  S489.739,385.091,489.739,256S385.091,22.261,256,22.261z M256,345.043c-49.178,0-89.043-39.866-89.043-89.043  s39.866-89.043,89.043-89.043s89.043,39.866,89.043,89.043S305.178,345.043,256,345.043z"/>
<path style="fill:#6D6D6D;" d="M256,44.522C139.204,44.522,44.522,139.204,44.522,256S139.204,467.478,256,467.478  S467.478,372.796,467.478,256S372.796,44.522,256,44.522z M256,345.043c-49.178,0-89.043-39.866-89.043-89.043  s39.866-89.043,89.043-89.043s89.043,39.866,89.043,89.043S305.178,345.043,256,345.043z"/>
<path style="fill:#444444;" d="M467.478,256c0,116.796-94.682,211.478-211.478,211.478c-5.62,0-11.186-0.224-16.696-0.654  C348.296,458.311,434.087,367.176,434.087,256S348.296,53.689,239.304,45.176c5.51-0.431,11.076-0.654,16.696-0.654  C372.796,44.522,467.478,139.204,467.478,256z"/>
<path style="fill:#BFBFBF;" d="M256,133.565c-67.618,0-122.435,54.816-122.435,122.435S188.381,378.435,256,378.435  S378.435,323.618,378.435,256S323.618,133.565,256,133.565z M256,333.913c-43.03,0-77.913-34.883-77.913-77.913  S212.97,178.087,256,178.087S333.913,212.97,333.913,256S299.03,333.913,256,333.913z"/>
<path style="fill:#999999;" d="M256,155.826c-55.325,0-100.174,44.849-100.174,100.174S200.675,356.174,256,356.174  S356.174,311.325,356.174,256S311.325,155.826,256,155.826z M256,333.913c-43.03,0-77.913-34.883-77.913-77.913  S212.97,178.087,256,178.087S333.913,212.97,333.913,256S299.03,333.913,256,333.913z"/>
<path style="fill:#BFBFBF;" d="M300.522,422.957c0,24.588-19.934,44.522-44.522,44.522s-44.522-19.934-44.522-44.522  c0-24.588,19.933-44.522,44.522-44.522S300.522,398.368,300.522,422.957z M400.589,217.043c24.588,0,44.522-19.934,44.522-44.522  S425.177,128,400.589,128s-44.522,19.933-44.522,44.522S376.001,217.043,400.589,217.043z M111.411,128  c-24.588,0-44.522,19.933-44.522,44.522s19.934,44.522,44.522,44.522s44.522-19.934,44.522-44.522S136.001,128,111.411,128z   M400.589,294.957c-24.588,0-44.522,19.933-44.522,44.522S376.001,384,400.589,384s44.522-19.933,44.522-44.522  S425.177,294.957,400.589,294.957z M111.411,294.957c-24.588,0-44.522,19.933-44.522,44.522S86.823,384,111.411,384  s44.522-19.933,44.522-44.522S136.001,294.957,111.411,294.957z M256,44.522c-24.588,0-44.522,19.933-44.522,44.522  s19.933,44.522,44.522,44.522s44.522-19.933,44.522-44.522S280.588,44.522,256,44.522z"/>
<path style="fill:#999999;" d="M300.522,422.957c0,24.588-19.934,44.522-44.522,44.522c-18.057,0-33.592-10.756-40.577-26.206  c5.589,2.527,11.785,3.945,18.316,3.945c24.588,0,44.522-19.934,44.522-44.522c0-6.531-1.418-12.729-3.945-18.316  C289.765,389.365,300.522,404.9,300.522,422.957z M400.589,217.043c24.588,0,44.522-19.934,44.522-44.522  c0-18.057-10.756-33.592-26.206-40.577c2.527,5.589,3.945,11.785,3.945,18.316c0,24.588-19.934,44.522-44.522,44.522  c-6.531,0-12.729-1.418-18.316-3.945C366.997,206.287,382.532,217.043,400.589,217.043z M129.727,131.945  c2.527,5.589,3.945,11.785,3.945,18.316c0,24.588-19.933,44.522-44.522,44.522c-6.531,0-12.728-1.418-18.316-3.945  c6.985,15.449,22.52,26.206,40.577,26.206c24.588,0,44.522-19.934,44.522-44.522C155.933,154.465,145.176,138.93,129.727,131.945z   M418.905,298.901c2.527,5.589,3.945,11.785,3.945,18.316c0,24.588-19.934,44.522-44.522,44.522c-6.531,0-12.729-1.418-18.316-3.945  c6.985,15.449,22.52,26.205,40.577,26.205c24.588,0,44.522-19.933,44.522-44.522C445.111,321.421,434.354,305.887,418.905,298.901z   M129.727,298.901c2.527,5.589,3.945,11.785,3.945,18.316c0,24.588-19.933,44.522-44.522,44.522c-6.531,0-12.728-1.418-18.316-3.945  C77.82,373.244,93.354,384,111.411,384c24.588,0,44.522-19.933,44.522-44.522C155.933,321.421,145.176,305.887,129.727,298.901z   M274.316,48.466c2.527,5.587,3.945,11.785,3.945,18.316c0,24.588-19.934,44.522-44.522,44.522c-6.531,0-12.728-1.418-18.316-3.945  c6.985,15.449,22.52,26.205,40.577,26.205c24.588,0,44.522-19.933,44.522-44.522C300.522,70.987,289.765,55.452,274.316,48.466z"/>
<path style="fill:#FCFCFC;" d="M256,411.826c0,6.147-4.983,11.13-11.13,11.13s-11.13-4.983-11.13-11.13  c0-6.147,4.983-11.13,11.13-11.13S256,405.679,256,411.826z M389.458,172.522c6.147,0,11.13-4.983,11.13-11.13  s-4.983-11.13-11.13-11.13c-6.147,0-11.13,4.983-11.13,11.13S383.311,172.522,389.458,172.522z M100.281,150.261  c-6.147,0-11.13,4.983-11.13,11.13s4.983,11.13,11.13,11.13s11.13-4.983,11.13-11.13S106.428,150.261,100.281,150.261z   M389.458,317.217c-6.147,0-11.13,4.983-11.13,11.13s4.983,11.13,11.13,11.13c6.147,0,11.13-4.983,11.13-11.13  S395.606,317.217,389.458,317.217z M100.281,317.217c-6.147,0-11.13,4.983-11.13,11.13s4.983,11.13,11.13,11.13  s11.13-4.983,11.13-11.13S106.428,317.217,100.281,317.217z M244.87,66.783c-6.147,0-11.13,4.983-11.13,11.13  s4.983,11.13,11.13,11.13S256,84.06,256,77.913S251.017,66.783,244.87,66.783z"/>
<g>
</g>
<g>
</g>
<g>
</g>
<g>
</g>
<g>
</g>
<g>
</g>
<g>
</g>
<g>
</g>
<g>
</g>
<g>
</g>
<g>
</g>
<g>
</g>
<g>
</g>
<g>
</g>
<g>
</g>
</svg>
