<?xml version="1.0" encoding="iso-8859-1"?>
<!-- Generator: Adobe Illustrator 19.0.0, SVG Export Plug-In . SVG Version: 6.00 Build 0)  -->
<svg xmlns="http://www.w3.org/2000/svg" xmlns:xlink="http://www.w3.org/1999/xlink" version="1.1" id="Layer_1" x="0px" y="0px" viewBox="0 0 512 512" style="enable-background:new 0 0 512 512;" xml:space="preserve">
<path style="fill:#BFBFBF;" d="M512,503.652c0,4.61-3.738,8.348-8.348,8.348H8.348C3.738,512,0,508.262,0,503.652  s3.738-8.348,8.348-8.348h495.304C508.262,495.304,512,499.042,512,503.652z"/>
<path style="fill:#444444;" d="M442.435,311.652v77.953c0,0.003,0,0.006,0,0.009v88.994c0,4.61-3.738,8.348-8.348,8.348  s-8.348-3.738-8.348-8.348v-85.133l-80.023-67.293l-81.368,67.293v85.133c0,4.61-3.738,8.348-8.348,8.348s-8.348-3.738-8.348-8.348  v-85.133l-80.595-67.201l-80.796,67.201v85.133c0,4.61-3.738,8.348-8.348,8.348s-8.348-3.738-8.348-8.348v-88.996  c0-0.003,0-0.006,0-0.009v-77.952c0-4.61,3.738-8.348,8.348-8.348s8.348,3.738,8.348,8.348v60.09l67.755-56.341l-2.271-1.893  c-3.542-2.952-4.02-8.215-1.069-11.757c2.952-3.543,8.216-4.02,11.757-1.069l4.636,3.866l11.389-9.471  c3.543-2.951,8.805-2.473,11.757,1.069c2.952,3.542,2.473,8.805-1.069,11.757l-9.038,7.517l67.544,56.323v-60.091  c0-4.61,3.738-8.348,8.348-8.348c4.61,0,8.348,3.738,8.348,8.348v60.09l68.368-56.494l-5.427-4.564  c-3.542-2.952-4.02-8.215-1.069-11.757c2.952-3.543,8.216-4.02,11.757-1.069l7.818,6.581l13.162-10.876  c3.543-2.951,8.805-2.473,11.757,1.069c2.952,3.542,2.473,8.805-1.069,11.757l-10.862,8.983l66.956,56.368v-60.09  c0-4.61,3.738-8.348,8.348-8.348C438.698,303.304,442.435,307.042,442.435,311.652z"/>
<path style="fill:#999999;" d="M450.783,333.913H61.217C27.408,333.913,0,306.505,0,272.695l0,0  c0-33.81,27.408-61.217,61.217-61.217h389.565c33.81,0,61.217,27.408,61.217,61.217l0,0  C512,306.505,484.592,333.913,450.783,333.913z"/>
<g>
	<path style="fill:#444444;" d="M61.217,244.869h389.565c15.368,0,27.826,12.458,27.826,27.826l0,0   c0,15.368-12.458,27.826-27.826,27.826H61.217c-15.368,0-27.826-12.458-27.826-27.826l0,0   C33.391,257.328,45.85,244.869,61.217,244.869z"/>
	<path style="fill:#444444;" d="M512,272.695L512,272.695c0,33.81-27.408,61.217-61.217,61.217h-44.522   c33.81,0,61.217-27.408,61.217-61.217l0,0c0-33.81-27.408-61.217-61.217-61.217h44.522C484.592,211.478,512,238.886,512,272.695z"/>
</g>
<path style="fill:#BFBFBF;" d="M478.609,272.695c0,15.368-12.458,27.826-27.826,27.826s-27.826-12.458-27.826-27.826  s12.458-27.826,27.826-27.826S478.609,257.328,478.609,272.695z M61.217,244.869c-15.368,0-27.826,12.458-27.826,27.826  s12.458,27.826,27.826,27.826s27.826-12.458,27.826-27.826S76.585,244.869,61.217,244.869z M256,244.869  c-15.368,0-27.826,12.458-27.826,27.826s12.458,27.826,27.826,27.826s27.826-12.458,27.826-27.826S271.368,244.869,256,244.869z"/>
<path style="fill:#444444;" d="M267.13,272.695c0,6.147-4.983,11.13-11.13,11.13s-11.13-4.983-11.13-11.13s4.983-11.13,11.13-11.13  S267.13,266.548,267.13,272.695z M450.783,261.565c-6.147,0-11.13,4.983-11.13,11.13s4.983,11.13,11.13,11.13  c6.147,0,11.13-4.983,11.13-11.13S456.93,261.565,450.783,261.565z M61.217,261.565c-6.147,0-11.13,4.983-11.13,11.13  s4.983,11.13,11.13,11.13s11.13-4.983,11.13-11.13S67.365,261.565,61.217,261.565z"/>
<path style="fill:#FFB933;" d="M300.522,489.739V512h-89.043v-22.261c0-12.295,9.966-22.261,22.261-22.261h44.522  C290.556,467.478,300.522,477.444,300.522,489.739z M100.174,467.478H55.652c-12.295,0-22.261,9.966-22.261,22.261V512h89.043  v-22.261C122.435,477.444,112.469,467.478,100.174,467.478z M456.348,467.478h-44.522c-12.295,0-22.261,9.966-22.261,22.261V512  h89.043v-22.261C478.609,477.444,468.642,467.478,456.348,467.478z"/>
<path style="fill:#FF9600;" d="M122.435,489.739V512h-22.261v-22.261c0-12.295-9.966-22.261-22.261-22.261h22.261  C112.469,467.478,122.435,477.444,122.435,489.739z M278.261,467.478H256c12.295,0,22.261,9.966,22.261,22.261V512h22.261v-22.261  C300.522,477.444,290.556,467.478,278.261,467.478z M456.348,467.478h-22.261c12.295,0,22.261,9.966,22.261,22.261V512h22.261  v-22.261C478.609,477.444,468.642,467.478,456.348,467.478z"/>
<g>
	<path style="fill:#D9B166;" d="M378.435,166.956c0,6.147-4.983,11.13-11.13,11.13H256c-6.147,0-11.13-4.983-11.13-11.13V44.522   h133.565V166.956z"/>
	<path style="fill:#D9B166;" d="M273.033,81.033c-1.629,1.629-3.767,2.445-5.902,2.445c-2.136,0-4.273-0.815-5.902-2.445   L194.445,14.25c-3.26-3.26-3.26-8.546,0-11.805c3.26-3.26,8.546-3.26,11.805,0l66.783,66.783   C276.293,72.487,276.293,77.773,273.033,81.033z"/>
</g>
<g>
	<path style="fill:#BC8E50;" d="M345.043,44.522h33.391v122.435c0,6.147-4.983,11.13-11.13,11.13h-21.148   c-0.614,0-1.113-0.499-1.113-1.113V44.522z"/>
	<path style="fill:#BC8E50;" d="M428.859,14.25l-66.783,66.783c-1.63,1.629-3.767,2.445-5.902,2.445   c-2.136,0-4.273-0.815-5.902-2.445c-3.26-3.26-3.26-8.546,0-11.805l66.783-66.783c3.26-3.26,8.546-3.26,11.805,0   C432.119,5.704,432.119,10.99,428.859,14.25z"/>
</g>
<path style="fill:#DBD1AF;" d="M219.826,169.739c0,4.61-3.738,8.348-8.348,8.348h-77.913c-4.61,0-8.348-3.738-8.348-8.348  s3.738-8.348,8.348-8.348h77.913C216.088,161.391,219.826,165.129,219.826,169.739z M178.087,144.696h33.391  c4.61,0,8.348-3.738,8.348-8.348c0-4.61-3.738-8.348-8.348-8.348h-33.391c-4.61,0-8.348,3.738-8.348,8.348  C169.739,140.958,173.477,144.696,178.087,144.696z M130.783,136.348c0-4.61-3.738-8.348-8.348-8.348H89.043  c-4.61,0-8.348,3.738-8.348,8.348c0,4.61,3.738,8.348,8.348,8.348h33.391C127.045,144.696,130.783,140.958,130.783,136.348z"/>
<g>
</g>
<g>
</g>
<g>
</g>
<g>
</g>
<g>
</g>
<g>
</g>
<g>
</g>
<g>
</g>
<g>
</g>
<g>
</g>
<g>
</g>
<g>
</g>
<g>
</g>
<g>
</g>
<g>
</g>
</svg>
