<?xml version="1.0" encoding="iso-8859-1"?>
<!-- Generator: Adobe Illustrator 19.0.0, SVG Export Plug-In . SVG Version: 6.00 Build 0)  -->
<svg xmlns="http://www.w3.org/2000/svg" xmlns:xlink="http://www.w3.org/1999/xlink" version="1.1" id="Layer_1" x="0px" y="0px" viewBox="0 0 512 512" style="enable-background:new 0 0 512 512;" xml:space="preserve">
<path style="fill:#6D6D6D;" d="M422.957,512H89.043c-12.295,0-22.261-9.966-22.261-22.261V22.261C66.783,9.966,76.749,0,89.043,0  h333.913c12.295,0,22.261,9.966,22.261,22.261v467.478C445.217,502.034,435.251,512,422.957,512z"/>
<path style="fill:#444444;" d="M445.217,22.261v467.478c0,12.295-9.966,22.261-22.261,22.261h-66.783V0h66.783  C435.251,0,445.217,9.966,445.217,22.261z"/>
<path style="fill:#BFBFBF;" d="M189.217,345.043v22.261c0,6.147-4.983,11.13-11.13,11.13h-44.522c-6.147,0-11.13-4.983-11.13-11.13  v-22.261c0-6.147,4.983-11.13,11.13-11.13h44.522C184.234,333.913,189.217,338.896,189.217,345.043z M278.261,411.826h-44.522  c-6.147,0-11.13,4.983-11.13,11.13v22.261c0,6.147,4.983,11.13,11.13,11.13h44.522c6.147,0,11.13-4.983,11.13-11.13v-22.261  C289.391,416.809,284.408,411.826,278.261,411.826z M278.261,256h-44.522c-6.147,0-11.13,4.983-11.13,11.13v22.261  c0,6.147,4.983,11.13,11.13,11.13h44.522c6.147,0,11.13-4.983,11.13-11.13V267.13C289.391,260.983,284.408,256,278.261,256z   M378.435,333.913h-44.522c-6.147,0-11.13,4.983-11.13,11.13v22.261c0,6.147,4.983,11.13,11.13,11.13h44.522  c6.147,0,11.13-4.983,11.13-11.13v-22.261C389.565,338.896,384.582,333.913,378.435,333.913z M278.261,333.913h-44.522  c-6.147,0-11.13,4.983-11.13,11.13v22.261c0,6.147,4.983,11.13,11.13,11.13h44.522c6.147,0,11.13-4.983,11.13-11.13v-22.261  C289.391,338.896,284.408,333.913,278.261,333.913z"/>
<path style="fill:#E2E2E2;" d="M267.13,267.13v22.261c0,6.147-4.983,11.13-11.13,11.13h-22.261c-6.147,0-11.13-4.983-11.13-11.13  V267.13c0-6.147,4.983-11.13,11.13-11.13H256C262.147,256,267.13,260.983,267.13,267.13z M256,333.913h-22.261  c-6.147,0-11.13,4.983-11.13,11.13v22.261c0,6.147,4.983,11.13,11.13,11.13H256c6.147,0,11.13-4.983,11.13-11.13v-22.261  C267.13,338.896,262.147,333.913,256,333.913z M256,411.826h-22.261c-6.147,0-11.13,4.983-11.13,11.13v22.261  c0,6.147,4.983,11.13,11.13,11.13H256c6.147,0,11.13-4.983,11.13-11.13v-22.261C267.13,416.809,262.147,411.826,256,411.826z   M356.174,333.913h-22.261c-6.147,0-11.13,4.983-11.13,11.13v22.261c0,6.147,4.983,11.13,11.13,11.13h22.261  c6.147,0,11.13-4.983,11.13-11.13v-22.261C367.304,338.896,362.321,333.913,356.174,333.913z M155.826,333.913h-22.261  c-6.147,0-11.13,4.983-11.13,11.13v22.261c0,6.147,4.983,11.13,11.13,11.13h22.261c6.147,0,11.13-4.983,11.13-11.13v-22.261  C166.957,338.896,161.973,333.913,155.826,333.913z"/>
<path style="fill:#AACE80;" d="M389.565,200.348h-267.13c-6.147,0-11.13-4.983-11.13-11.13V55.652c0-6.147,4.983-11.13,11.13-11.13  h267.13c6.147,0,11.13,4.983,11.13,11.13v133.565C400.696,195.365,395.713,200.348,389.565,200.348z"/>
<path style="fill:#C1E296;" d="M222.609,200.348h-66.783V44.522h66.783V200.348z"/>
<path style="fill:#57682E;" d="M367.304,166.957c0,4.61-3.738,8.348-8.348,8.348h-22.261c-4.61,0-8.348-3.738-8.348-8.348  s3.738-8.348,8.348-8.348h22.261C363.567,158.609,367.304,162.346,367.304,166.957z M297.739,158.609h-22.261  c-4.61,0-8.348,3.738-8.348,8.348s3.738,8.348,8.348,8.348h22.261c4.61,0,8.348-3.738,8.348-8.348S302.349,158.609,297.739,158.609z   M236.522,158.609h-22.261c-4.61,0-8.348,3.738-8.348,8.348s3.738,8.348,8.348,8.348h22.261c4.61,0,8.348-3.738,8.348-8.348  S241.132,158.609,236.522,158.609z M175.304,158.609h-22.261c-4.61,0-8.348,3.738-8.348,8.348s3.738,8.348,8.348,8.348h22.261  c4.61,0,8.348-3.738,8.348-8.348S179.915,158.609,175.304,158.609z M367.304,89.043c0-4.61-3.738-8.348-8.348-8.348H258.783  c-4.61,0-8.348,3.738-8.348,8.348c0,4.61,3.738,8.348,8.348,8.348h100.174C363.567,97.391,367.304,93.654,367.304,89.043z   M358.957,114.087h-44.522c-4.61,0-8.348,3.738-8.348,8.348s3.738,8.348,8.348,8.348h44.522c4.61,0,8.348-3.738,8.348-8.348  S363.567,114.087,358.957,114.087z"/>
<g>
</g>
<g>
</g>
<g>
</g>
<g>
</g>
<g>
</g>
<g>
</g>
<g>
</g>
<g>
</g>
<g>
</g>
<g>
</g>
<g>
</g>
<g>
</g>
<g>
</g>
<g>
</g>
<g>
</g>
</svg>
