<?xml version="1.0" encoding="iso-8859-1"?>
<!-- Generator: Adobe Illustrator 19.0.0, SVG Export Plug-In . SVG Version: 6.00 Build 0)  -->
<svg xmlns="http://www.w3.org/2000/svg" xmlns:xlink="http://www.w3.org/1999/xlink" version="1.1" id="Layer_1" x="0px" y="0px" viewBox="0 0 512 512" style="enable-background:new 0 0 512 512;" xml:space="preserve">
<path style="fill:#999999;" d="M434.087,478.609v22.261c0,6.147-4.983,11.13-11.13,11.13h-6.151H95.194h-6.151  c-6.147,0-11.13-4.983-11.13-11.13v-22.261c0-6.147,4.983-11.13,11.13-11.13h15.524l15.99-75.954  c4.338-20.602,22.514-35.35,43.567-35.35h183.751c21.053,0,39.229,14.748,43.567,35.35l15.991,75.954h15.524  C429.104,467.478,434.087,472.461,434.087,478.609z"/>
<path style="fill:#6D6D6D;" d="M434.087,478.609v22.261c0,6.147-4.983,11.13-11.13,11.13h-6.151h-27.241  c6.147,0,11.13-4.983,11.13-11.13v-22.261c0-6.147-4.983-11.13-11.13-11.13h-15.524H104.567l7.03-33.391h227.979  c14.139,0,24.696-13.01,21.783-26.847l-3.309-15.716c-4.338-20.602-22.512-35.35-43.567-35.35h33.391  c21.053,0,39.229,14.748,43.567,35.35l15.991,75.954h15.524C429.104,467.478,434.087,472.461,434.087,478.609z"/>
<path style="fill:#BFBFBF;" d="M276.041,361.526l-43.005,11.523l-72.019-268.779l43.005-11.523L276.041,361.526z"/>
<path style="fill:#6D6D6D;" d="M205.661,98.868l70.379,262.659l-20.164,5.403l-70.379-262.659L205.661,98.868z"/>
<path style="fill:#FFB933;" d="M221.468,111.12l-66.373,17.784c-5.561,1.49-11.34-1.506-13.326-6.909l-19.72-53.612  c-10.317-28.048,5.678-58.9,34.544-66.635l0,0c28.867-7.735,58.144,10.987,63.234,40.436l9.728,56.289  C230.536,104.145,227.029,109.629,221.468,111.12z"/>
<path style="fill:#FFD34E;" d="M191.062,119.267l-35.967,9.637c-5.561,1.49-11.34-1.506-13.326-6.909l-19.72-53.612  c-8.804-23.936,1.563-49.901,22.728-61.812c17.673,8.692,31.197,25.404,34.845,46.506L191.062,119.267z"/>
<path style="fill:#BFBFBF;" d="M336.613,351.243c11.933,44.533-14.495,90.307-59.028,102.24s-90.307-14.495-102.24-59.028  c-11.933-44.533,14.495-90.307,59.028-102.24S324.68,306.71,336.613,351.243z"/>
<path style="fill:#999999;" d="M293.609,362.766c5.569,20.782-6.764,42.143-27.547,47.712s-42.143-6.764-47.712-27.547  c-5.569-20.782,6.764-42.143,27.547-47.712S288.04,341.984,293.609,362.766z"/>
<path style="fill:#444444;" d="M266.083,410.478c-8.243,2.209-16.574,1.592-23.978-1.242c18.432-7.026,28.925-27.001,23.709-46.47  c-3.359-12.538-12.472-21.993-23.733-26.303c1.244-0.474,2.523-0.89,3.838-1.242c20.782-5.569,42.143,6.764,47.712,27.547  C299.197,383.548,286.865,404.91,266.083,410.478z"/>
<g>
</g>
<g>
</g>
<g>
</g>
<g>
</g>
<g>
</g>
<g>
</g>
<g>
</g>
<g>
</g>
<g>
</g>
<g>
</g>
<g>
</g>
<g>
</g>
<g>
</g>
<g>
</g>
<g>
</g>
</svg>
