<?xml version="1.0" encoding="iso-8859-1"?>
<!-- Generator: Adobe Illustrator 19.0.0, SVG Export Plug-In . SVG Version: 6.00 Build 0)  -->
<svg xmlns="http://www.w3.org/2000/svg" xmlns:xlink="http://www.w3.org/1999/xlink" version="1.1" id="Layer_1" x="0px" y="0px" viewBox="0 0 512 512" style="enable-background:new 0 0 512 512;" xml:space="preserve">
<path style="fill:#FFD34E;" d="M456.348,478.609v22.261c0,6.147-4.983,11.13-11.13,11.13H66.783c-6.147,0-11.13-4.983-11.13-11.13  v-22.261c0-6.147,4.983-11.13,11.13-11.13h378.435C451.365,467.478,456.348,472.461,456.348,478.609z M445.217,0H66.783  c-6.147,0-11.13,4.983-11.13,11.13v22.261c0,6.147,4.983,11.13,11.13,11.13h378.435c6.147,0,11.13-4.983,11.13-11.13V11.13  C456.348,4.983,451.365,0,445.217,0z"/>
<path style="fill:#6D6D6D;" d="M389.565,144.696v222.609c12.295,0,22.261,9.966,22.261,22.261c0,12.295-9.966,22.261-22.261,22.261  h-267.13c-12.295,0-22.261-9.966-22.261-22.261c0-12.295,9.966-22.261,22.261-22.261V144.696c-12.295,0-22.261-9.966-22.261-22.261  s9.966-22.261,22.261-22.261h267.13c12.295,0,22.261,9.966,22.261,22.261S401.86,144.696,389.565,144.696z M66.783,44.522h30.72  L142.024,0H66.783c-6.147,0-11.13,4.983-11.13,11.13v22.261C55.652,39.539,60.635,44.522,66.783,44.522z M323.228,0h-90.379  l-44.522,44.522h90.379L323.228,0z M445.217,467.478h-31.165L369.53,512h75.687c6.147,0,11.13-4.983,11.13-11.13v-22.261  C456.348,472.461,451.365,467.478,445.217,467.478z M445.217,0h-31.165L369.53,44.522h75.687c6.147,0,11.13-4.983,11.13-11.13V11.13  C456.348,4.983,451.365,0,445.217,0z M188.327,512h90.379l44.522-44.522h-90.379L188.327,512z M55.652,478.609v22.261  c0,6.147,4.983,11.13,11.13,11.13h30.72l44.522-44.522H66.783C60.635,467.478,55.652,472.461,55.652,478.609z"/>
<path style="fill:#999999;" d="M200.348,411.826h-44.522V100.174h44.522V411.826z"/>
<path style="fill:#444444;" d="M411.826,389.565c0,12.295-9.966,22.261-22.261,22.261h-44.522c12.295,0,22.261-9.966,22.261-22.261  c0-12.295-9.966-22.261-22.261-22.261h-33.391H122.435v-33.391h200.348c18.441,0,33.391-14.95,33.391-33.391v-89.043  c0-18.441-14.95-33.391-33.391-33.391H122.435v-33.391h189.217h33.391c12.295,0,22.261-9.966,22.261-22.261  s-9.966-22.261-22.261-22.261h44.522c12.295,0,22.261,9.966,22.261,22.261s-9.966,22.261-22.261,22.261v222.609  C401.86,367.304,411.826,377.271,411.826,389.565z"/>
<path style="fill:#6D6D6D;" d="M200.348,144.696v33.391h-44.522v-33.391H200.348z M155.826,367.304h44.522v-33.391h-44.522V367.304z  "/>
<path style="fill:#FF9600;" d="M256,322.783L256,322.783c-24.588,0-44.522-19.934-44.522-44.522l0,0  c0-14.515,4.296-28.705,12.348-40.783L256,189.217l32.174,48.262c8.052,12.077,12.348,26.267,12.348,40.782l0,0  C300.522,302.849,280.588,322.783,256,322.783z"/>
<path style="fill:#FFD34E;" d="M256,189.217l17.351,26.026c3.231,9.49,4.91,19.494,4.91,29.626l0,0  c0,30.736-24.917,55.652-55.652,55.652l0,0c-1.791,0-3.56-0.092-5.308-0.258c-3.699-6.491-5.822-13.997-5.822-22.003l0,0  c0-14.515,4.296-28.705,12.348-40.783L256,189.217z"/>
<g>
</g>
<g>
</g>
<g>
</g>
<g>
</g>
<g>
</g>
<g>
</g>
<g>
</g>
<g>
</g>
<g>
</g>
<g>
</g>
<g>
</g>
<g>
</g>
<g>
</g>
<g>
</g>
<g>
</g>
</svg>
