<?xml version="1.0" encoding="iso-8859-1"?>
<!-- Generator: Adobe Illustrator 19.0.0, SVG Export Plug-In . SVG Version: 6.00 Build 0)  -->
<svg xmlns="http://www.w3.org/2000/svg" xmlns:xlink="http://www.w3.org/1999/xlink" version="1.1" id="Layer_1" x="0px" y="0px" viewBox="0 0 512 512" style="enable-background:new 0 0 512 512;" xml:space="preserve">
<path style="fill:#FFD34E;" d="M512,200.348v267.13c0,6.147-4.983,11.13-11.13,11.13h-320v2.783c0,4.61-3.738,8.348-8.348,8.348  c-4.61,0-8.348-3.738-8.348-8.348v-2.783H11.13c-6.147,0-11.13-4.983-11.13-11.13v-267.13c0-6.147,4.983-11.13,11.13-11.13h153.043  v-13.913c0-4.61,3.738-8.348,8.348-8.348c4.61,0,8.348,3.738,8.348,8.348v13.913h320C507.017,189.217,512,194.2,512,200.348z"/>
<path style="fill:#FFB933;" d="M512,200.348v267.13c0,6.147-4.983,11.13-11.13,11.13h-44.522V189.217h44.522  C507.017,189.217,512,194.2,512,200.348z"/>
<path style="fill:#FF9600;" d="M403.478,233.739v200.348c0,4.61-3.738,8.348-8.348,8.348c-4.61,0-8.348-3.738-8.348-8.348V233.739  c0-4.61,3.738-8.348,8.348-8.348C399.741,225.391,403.478,229.129,403.478,233.739z M450.783,225.391  c-4.61,0-8.348,3.738-8.348,8.348v200.348c0,4.61,3.738,8.348,8.348,8.348s8.348-3.738,8.348-8.348V233.739  C459.13,229.129,455.393,225.391,450.783,225.391z M283.826,225.391c-4.61,0-8.348,3.738-8.348,8.348v200.348  c0,4.61,3.738,8.348,8.348,8.348s8.348-3.738,8.348-8.348V233.739C292.174,229.129,288.436,225.391,283.826,225.391z   M172.522,225.391c-4.61,0-8.348,3.738-8.348,8.348v200.348c0,4.61,3.738,8.348,8.348,8.348c4.61,0,8.348-3.738,8.348-8.348V233.739  C180.87,229.129,177.132,225.391,172.522,225.391z M228.174,225.391c-4.61,0-8.348,3.738-8.348,8.348v200.348  c0,4.61,3.738,8.348,8.348,8.348s8.348-3.738,8.348-8.348V233.739C236.522,229.129,232.784,225.391,228.174,225.391z   M61.217,225.391c-4.61,0-8.348,3.738-8.348,8.348v200.348c0,4.61,3.738,8.348,8.348,8.348s8.348-3.738,8.348-8.348V233.739  C69.565,229.129,65.828,225.391,61.217,225.391z M116.87,225.391c-4.61,0-8.348,3.738-8.348,8.348v200.348  c0,4.61,3.738,8.348,8.348,8.348s8.348-3.738,8.348-8.348V233.739C125.217,229.129,121.48,225.391,116.87,225.391z"/>
<path style="fill:#BC8E50;" d="M247.652,58.435V8.348C247.652,3.738,251.39,0,256,0s8.348,3.738,8.348,8.348v50.087  c0,4.61-3.738,8.348-8.348,8.348S247.652,63.045,247.652,58.435z M340.516,148.748l-79.301-63.441  c-3.049-2.439-7.381-2.439-10.429,0l-79.302,63.441c-4.646,3.716-7.309,9.261-7.309,15.21v25.259h16.696v-25.259  c0-0.85,0.381-1.642,1.044-2.173L256,102.516l74.086,59.268c0.663,0.532,1.044,1.323,1.044,2.174v317.433  c0,7.672-6.241,13.913-13.913,13.913H194.783c-7.672,0-13.913-6.241-13.913-13.913v-2.783h-16.696v2.783  c0,16.878,13.73,30.609,30.609,30.609h122.435c16.878,0,30.609-13.73,30.609-30.609V163.958  C347.826,158.009,345.161,152.466,340.516,148.748z"/>
<path style="fill:#FFB933;" d="M311.652,100.174c0,30.736-24.917,55.652-55.652,55.652s-55.652-24.917-55.652-55.652  S225.264,44.522,256,44.522S311.652,69.438,311.652,100.174z"/>
<path style="fill:#FFD34E;" d="M289.391,100.174c0,26.923-19.12,49.38-44.522,54.537c-25.402-5.157-44.522-27.613-44.522-54.537  s19.12-49.38,44.522-54.537C270.271,50.794,289.391,73.25,289.391,100.174z"/>
<path style="fill:#FF9600;" d="M278.261,100.174c0,12.295-9.966,22.261-22.261,22.261c-12.295,0-22.261-9.966-22.261-22.261  S243.705,77.913,256,77.913C268.295,77.913,278.261,87.879,278.261,100.174z"/>
<g>
</g>
<g>
</g>
<g>
</g>
<g>
</g>
<g>
</g>
<g>
</g>
<g>
</g>
<g>
</g>
<g>
</g>
<g>
</g>
<g>
</g>
<g>
</g>
<g>
</g>
<g>
</g>
<g>
</g>
</svg>
